<svg width="390" height="848" viewBox="0 0 390 848" fill="none" xmlns="http://www.w3.org/2000/svg">
<g clip-path="url(#clip0_1_7)">
<rect width="390" height="848" fill="black"/>
<rect x="30" y="126" width="329" height="500" fill="black"/>
<path d="M152.152 103.288C150.824 103.288 149.592 103.072 148.456 102.64C147.336 102.208 146.36 101.6 145.528 100.816C144.712 100.032 144.072 99.112 143.608 98.056C143.16 97 142.936 95.848 142.936 94.6C142.936 93.352 143.16 92.2 143.608 91.144C144.072 90.088 144.72 89.168 145.552 88.384C146.384 87.6 147.36 86.992 148.48 86.56C149.6 86.128 150.816 85.912 152.128 85.912C153.456 85.912 154.672 86.128 155.776 86.56C156.896 86.992 157.864 87.6 158.68 88.384C159.512 89.168 160.16 90.088 160.624 91.144C161.088 92.184 161.32 93.336 161.32 94.6C161.32 95.848 161.088 97.008 160.624 98.08C160.16 99.136 159.512 100.056 158.68 100.84C157.864 101.608 156.896 102.208 155.776 102.64C154.672 103.072 153.464 103.288 152.152 103.288ZM152.128 99.976C152.88 99.976 153.568 99.848 154.192 99.592C154.832 99.336 155.392 98.968 155.872 98.488C156.352 98.008 156.72 97.44 156.976 96.784C157.248 96.128 157.384 95.4 157.384 94.6C157.384 93.8 157.248 93.072 156.976 92.416C156.72 91.76 156.352 91.192 155.872 90.712C155.408 90.232 154.856 89.864 154.216 89.608C153.576 89.352 152.88 89.224 152.128 89.224C151.376 89.224 150.68 89.352 150.04 89.608C149.416 89.864 148.864 90.232 148.384 90.712C147.904 91.192 147.528 91.76 147.256 92.416C147 93.072 146.872 93.8 146.872 94.6C146.872 95.384 147 96.112 147.256 96.784C147.528 97.44 147.896 98.008 148.36 98.488C148.84 98.968 149.4 99.336 150.04 99.592C150.68 99.848 151.376 99.976 152.128 99.976ZM170.218 103.192C168.826 103.192 167.586 102.912 166.498 102.352C165.41 101.776 164.554 100.984 163.93 99.976C163.322 98.968 163.018 97.824 163.018 96.544C163.018 95.248 163.322 94.104 163.93 93.112C164.554 92.104 165.41 91.32 166.498 90.76C167.586 90.184 168.826 89.896 170.218 89.896C171.578 89.896 172.762 90.184 173.77 90.76C174.778 91.32 175.522 92.128 176.002 93.184L173.098 94.744C172.762 94.136 172.338 93.688 171.826 93.4C171.33 93.112 170.786 92.968 170.194 92.968C169.554 92.968 168.978 93.112 168.466 93.4C167.954 93.688 167.546 94.096 167.242 94.624C166.954 95.152 166.81 95.792 166.81 96.544C166.81 97.296 166.954 97.936 167.242 98.464C167.546 98.992 167.954 99.4 168.466 99.688C168.978 99.976 169.554 100.12 170.194 100.12C170.786 100.12 171.33 99.984 171.826 99.712C172.338 99.424 172.762 98.968 173.098 98.344L176.002 99.928C175.522 100.968 174.778 101.776 173.77 102.352C172.762 102.912 171.578 103.192 170.218 103.192ZM183.625 103.192C182.105 103.192 180.921 102.808 180.073 102.04C179.225 101.256 178.801 100.096 178.801 98.56V87.232H182.545V98.512C182.545 99.056 182.689 99.48 182.977 99.784C183.265 100.072 183.657 100.216 184.153 100.216C184.745 100.216 185.249 100.056 185.665 99.736L186.673 102.376C186.289 102.648 185.825 102.856 185.281 103C184.753 103.128 184.201 103.192 183.625 103.192ZM176.809 93.256V90.376H185.761V93.256H176.809ZM194.52 103.192C193.144 103.192 191.92 102.904 190.848 102.328C189.792 101.752 188.952 100.968 188.328 99.976C187.72 98.968 187.416 97.824 187.416 96.544C187.416 95.248 187.72 94.104 188.328 93.112C188.952 92.104 189.792 91.32 190.848 90.76C191.92 90.184 193.144 89.896 194.52 89.896C195.88 89.896 197.096 90.184 198.168 90.76C199.24 91.32 200.08 92.096 200.688 93.088C201.296 94.08 201.6 95.232 201.6 96.544C201.6 97.824 201.296 98.968 200.688 99.976C200.08 100.968 199.24 101.752 198.168 102.328C197.096 102.904 195.88 103.192 194.52 103.192ZM194.52 100.12C195.144 100.12 195.704 99.976 196.2 99.688C196.696 99.4 197.088 98.992 197.376 98.464C197.664 97.92 197.808 97.28 197.808 96.544C197.808 95.792 197.664 95.152 197.376 94.624C197.088 94.096 196.696 93.688 196.2 93.4C195.704 93.112 195.144 92.968 194.52 92.968C193.896 92.968 193.336 93.112 192.84 93.4C192.344 93.688 191.944 94.096 191.64 94.624C191.352 95.152 191.208 95.792 191.208 96.544C191.208 97.28 191.352 97.92 191.64 98.464C191.944 98.992 192.344 99.4 192.84 99.688C193.336 99.976 193.896 100.12 194.52 100.12ZM211.735 103.192C210.599 103.192 209.623 102.952 208.807 102.472C207.991 101.992 207.367 101.264 206.935 100.288C206.503 99.296 206.287 98.048 206.287 96.544C206.287 95.024 206.511 93.776 206.959 92.8C207.423 91.824 208.063 91.096 208.879 90.616C209.695 90.136 210.647 89.896 211.735 89.896C212.951 89.896 214.039 90.168 214.999 90.712C215.975 91.256 216.743 92.024 217.303 93.016C217.879 94.008 218.167 95.184 218.167 96.544C218.167 97.888 217.879 99.056 217.303 100.048C216.743 101.04 215.975 101.816 214.999 102.376C214.039 102.92 212.951 103.192 211.735 103.192ZM204.103 103V85.192H207.847V92.704L207.607 96.52L207.679 100.36V103H204.103ZM211.087 100.12C211.711 100.12 212.263 99.976 212.743 99.688C213.239 99.4 213.631 98.992 213.919 98.464C214.223 97.92 214.375 97.28 214.375 96.544C214.375 95.792 214.223 95.152 213.919 94.624C213.631 94.096 213.239 93.688 212.743 93.4C212.263 93.112 211.711 92.968 211.087 92.968C210.463 92.968 209.903 93.112 209.407 93.4C208.911 93.688 208.519 94.096 208.231 94.624C207.943 95.152 207.799 95.792 207.799 96.544C207.799 97.28 207.943 97.92 208.231 98.464C208.519 98.992 208.911 99.4 209.407 99.688C209.903 99.976 210.463 100.12 211.087 100.12ZM227.081 103.192C225.609 103.192 224.313 102.904 223.193 102.328C222.089 101.752 221.233 100.968 220.625 99.976C220.017 98.968 219.713 97.824 219.713 96.544C219.713 95.248 220.009 94.104 220.601 93.112C221.209 92.104 222.033 91.32 223.073 90.76C224.113 90.184 225.289 89.896 226.601 89.896C227.865 89.896 229.001 90.168 230.009 90.712C231.033 91.24 231.841 92.008 232.433 93.016C233.025 94.008 233.321 95.2 233.321 96.592C233.321 96.736 233.313 96.904 233.297 97.096C233.281 97.272 233.265 97.44 233.249 97.6H222.761V95.416H231.281L229.841 96.064C229.841 95.392 229.705 94.808 229.433 94.312C229.161 93.816 228.785 93.432 228.305 93.16C227.825 92.872 227.265 92.728 226.625 92.728C225.985 92.728 225.417 92.872 224.921 93.16C224.441 93.432 224.065 93.824 223.793 94.336C223.521 94.832 223.385 95.424 223.385 96.112V96.688C223.385 97.392 223.537 98.016 223.841 98.56C224.161 99.088 224.601 99.496 225.161 99.784C225.737 100.056 226.409 100.192 227.177 100.192C227.865 100.192 228.465 100.088 228.977 99.88C229.505 99.672 229.985 99.36 230.417 98.944L232.409 101.104C231.817 101.776 231.073 102.296 230.177 102.664C229.281 103.016 228.249 103.192 227.081 103.192ZM235.814 103V90.088H239.39V93.736L238.886 92.68C239.27 91.768 239.886 91.08 240.734 90.616C241.582 90.136 242.614 89.896 243.83 89.896V93.352C243.67 93.336 243.526 93.328 243.398 93.328C243.27 93.312 243.134 93.304 242.99 93.304C241.966 93.304 241.134 93.6 240.494 94.192C239.87 94.768 239.558 95.672 239.558 96.904V103H235.814Z" fill="url(#paint0_linear_1_7)"/>
<path d="M42.12 99.568L31.68 95.392V93.808L42.12 89.632V91.12L32.304 94.984V94.216L42.12 98.08V99.568Z" fill="url(#paint1_linear_1_7)"/>
<path d="M344.687 99.568V98.08L354.503 94.216V94.984L344.687 91.12V89.632L355.127 93.808V95.392L344.687 99.568Z" fill="url(#paint2_linear_1_7)"/>
<path d="M48.2104 244.096C47.6184 244.096 47.0424 244.004 46.4824 243.82C45.9304 243.636 45.4784 243.388 45.1264 243.076L45.6784 242.128C45.9584 242.392 46.3224 242.608 46.7704 242.776C47.2184 242.944 47.6984 243.028 48.2104 243.028C48.8344 243.028 49.3184 242.896 49.6624 242.632C50.0144 242.36 50.1904 241.996 50.1904 241.54C50.1904 241.1 50.0224 240.748 49.6864 240.484C49.3584 240.212 48.8344 240.076 48.1144 240.076H47.4424V239.236L49.9384 236.164L50.1064 236.644H45.5104V235.6H51.0544V236.416L48.5704 239.476L47.9464 239.104H48.3424C49.3584 239.104 50.1184 239.332 50.6224 239.788C51.1344 240.244 51.3904 240.824 51.3904 241.528C51.3904 242 51.2744 242.432 51.0424 242.824C50.8104 243.216 50.4584 243.528 49.9864 243.76C49.5224 243.984 48.9304 244.096 48.2104 244.096Z" fill="white"/>
<path d="M95.9423 241.936V241.096L100.238 235.6H101.534L97.2743 241.096L96.6623 240.904H103.37V241.936H95.9423ZM100.61 244V241.936L100.646 240.904V239.08H101.774V244H100.61Z" fill="white"/>
<path d="M150.343 244.096C149.751 244.096 149.175 244.004 148.615 243.82C148.063 243.636 147.611 243.388 147.259 243.076L147.811 242.128C148.091 242.392 148.455 242.608 148.903 242.776C149.351 242.944 149.827 243.028 150.331 243.028C150.971 243.028 151.463 242.892 151.807 242.62C152.151 242.348 152.323 241.984 152.323 241.528C152.323 241.216 152.247 240.944 152.095 240.712C151.943 240.48 151.679 240.304 151.303 240.184C150.935 240.056 150.427 239.992 149.779 239.992H147.871L148.315 235.6H153.055V236.644H148.759L149.383 236.056L149.035 239.524L148.411 238.948H150.031C150.871 238.948 151.547 239.056 152.059 239.272C152.571 239.488 152.943 239.788 153.175 240.172C153.407 240.548 153.523 240.984 153.523 241.48C153.523 241.96 153.407 242.4 153.175 242.8C152.943 243.192 152.591 243.508 152.119 243.748C151.655 243.98 151.063 244.096 150.343 244.096Z" fill="white"/>
<path d="M201.401 244.096C200.657 244.096 200.021 243.932 199.493 243.604C198.965 243.276 198.561 242.804 198.281 242.188C198.009 241.564 197.873 240.804 197.873 239.908C197.873 238.956 198.041 238.152 198.377 237.496C198.713 236.84 199.181 236.344 199.781 236.008C200.381 235.672 201.069 235.504 201.845 235.504C202.245 235.504 202.625 235.544 202.985 235.624C203.353 235.704 203.669 235.828 203.933 235.996L203.477 236.932C203.261 236.78 203.013 236.676 202.733 236.62C202.461 236.564 202.173 236.536 201.869 236.536C201.013 236.536 200.333 236.804 199.829 237.34C199.325 237.868 199.073 238.656 199.073 239.704C199.073 239.872 199.081 240.072 199.097 240.304C199.113 240.536 199.153 240.764 199.217 240.988L198.809 240.58C198.929 240.212 199.117 239.904 199.373 239.656C199.637 239.4 199.949 239.212 200.309 239.092C200.677 238.964 201.073 238.9 201.497 238.9C202.057 238.9 202.553 239.004 202.985 239.212C203.417 239.42 203.757 239.716 204.005 240.1C204.253 240.476 204.377 240.924 204.377 241.444C204.377 241.98 204.245 242.448 203.981 242.848C203.717 243.248 203.361 243.556 202.913 243.772C202.465 243.988 201.961 244.096 201.401 244.096ZM201.353 243.124C201.721 243.124 202.041 243.056 202.313 242.92C202.593 242.784 202.813 242.596 202.973 242.356C203.133 242.108 203.213 241.82 203.213 241.492C203.213 240.996 203.041 240.604 202.697 240.316C202.353 240.02 201.885 239.872 201.293 239.872C200.909 239.872 200.573 239.944 200.285 240.088C199.997 240.232 199.769 240.428 199.601 240.676C199.441 240.916 199.361 241.192 199.361 241.504C199.361 241.792 199.437 242.06 199.589 242.308C199.741 242.548 199.965 242.744 200.261 242.896C200.557 243.048 200.921 243.124 201.353 243.124Z" fill="white"/>
<path d="M250.442 244L254.006 236.104L254.318 236.644H249.326L249.926 236.056V238.144H248.774V235.6H255.11V236.416L251.714 244H250.442Z" fill="white"/>
<path d="M302.991 244.096C302.311 244.096 301.723 243.996 301.227 243.796C300.731 243.596 300.347 243.312 300.075 242.944C299.803 242.568 299.667 242.128 299.667 241.624C299.667 241.128 299.795 240.708 300.051 240.364C300.315 240.012 300.695 239.748 301.191 239.572C301.687 239.388 302.287 239.296 302.991 239.296C303.695 239.296 304.295 239.388 304.791 239.572C305.295 239.748 305.679 240.012 305.943 240.364C306.207 240.716 306.339 241.136 306.339 241.624C306.339 242.128 306.203 242.568 305.931 242.944C305.659 243.312 305.271 243.596 304.767 243.796C304.263 243.996 303.671 244.096 302.991 244.096ZM302.991 243.124C303.663 243.124 304.187 242.988 304.563 242.716C304.947 242.436 305.139 242.06 305.139 241.588C305.139 241.124 304.947 240.76 304.563 240.496C304.187 240.224 303.663 240.088 302.991 240.088C302.327 240.088 301.807 240.224 301.431 240.496C301.055 240.76 300.867 241.124 300.867 241.588C300.867 242.06 301.055 242.436 301.431 242.716C301.807 242.988 302.327 243.124 302.991 243.124ZM302.991 239.944C302.351 239.944 301.807 239.86 301.359 239.692C300.911 239.516 300.567 239.268 300.327 238.948C300.087 238.62 299.967 238.232 299.967 237.784C299.967 237.312 300.091 236.908 300.339 236.572C300.595 236.228 300.951 235.964 301.407 235.78C301.863 235.596 302.391 235.504 302.991 235.504C303.599 235.504 304.131 235.596 304.587 235.78C305.043 235.964 305.399 236.228 305.655 236.572C305.911 236.908 306.039 237.312 306.039 237.784C306.039 238.232 305.919 238.62 305.679 238.948C305.439 239.268 305.091 239.516 304.635 239.692C304.179 239.86 303.631 239.944 302.991 239.944ZM302.991 239.176C303.575 239.176 304.031 239.056 304.359 238.816C304.695 238.576 304.863 238.248 304.863 237.832C304.863 237.408 304.691 237.076 304.347 236.836C304.003 236.596 303.551 236.476 302.991 236.476C302.431 236.476 301.983 236.596 301.647 236.836C301.319 237.076 301.155 237.408 301.155 237.832C301.155 238.248 301.315 238.576 301.635 238.816C301.963 239.056 302.415 239.176 302.991 239.176Z" fill="white"/>
<path d="M353.597 235.504C354.357 235.504 354.997 235.668 355.517 235.996C356.045 236.324 356.445 236.8 356.717 237.424C356.989 238.04 357.125 238.796 357.125 239.692C357.125 240.644 356.957 241.448 356.621 242.104C356.285 242.76 355.821 243.256 355.229 243.592C354.637 243.928 353.945 244.096 353.153 244.096C352.761 244.096 352.381 244.056 352.013 243.976C351.653 243.896 351.337 243.772 351.065 243.604L351.521 242.668C351.745 242.812 351.993 242.916 352.265 242.98C352.545 243.036 352.837 243.064 353.141 243.064C353.989 243.064 354.665 242.8 355.169 242.272C355.673 241.736 355.925 240.944 355.925 239.896C355.925 239.728 355.917 239.528 355.901 239.296C355.885 239.064 355.849 238.836 355.793 238.612L356.189 239.02C356.077 239.388 355.889 239.7 355.625 239.956C355.369 240.204 355.057 240.392 354.689 240.52C354.329 240.64 353.933 240.7 353.501 240.7C352.949 240.7 352.457 240.596 352.025 240.388C351.593 240.18 351.253 239.888 351.005 239.512C350.757 239.128 350.633 238.676 350.633 238.156C350.633 237.612 350.761 237.144 351.017 236.752C351.281 236.352 351.637 236.044 352.085 235.828C352.541 235.612 353.045 235.504 353.597 235.504ZM353.645 236.476C353.285 236.476 352.965 236.544 352.685 236.68C352.405 236.816 352.185 237.004 352.025 237.244C351.873 237.484 351.797 237.772 351.797 238.108C351.797 238.604 351.969 239 352.313 239.296C352.657 239.584 353.121 239.728 353.705 239.728C354.089 239.728 354.425 239.656 354.713 239.512C355.009 239.368 355.237 239.172 355.397 238.924C355.565 238.676 355.649 238.4 355.649 238.096C355.649 237.8 355.573 237.532 355.421 237.292C355.269 237.052 355.045 236.856 354.749 236.704C354.453 236.552 354.085 236.476 353.645 236.476Z" fill="white"/>
<path d="M47.2693 301V293.08L47.7853 293.644H45.3733V292.6H48.4573V301H47.2693ZM54.7268 301.096C54.0708 301.096 53.4828 300.928 52.9628 300.592C52.4508 300.256 52.0428 299.768 51.7388 299.128C51.4428 298.488 51.2948 297.712 51.2948 296.8C51.2948 295.888 51.4428 295.112 51.7388 294.472C52.0428 293.832 52.4508 293.344 52.9628 293.008C53.4828 292.672 54.0708 292.504 54.7268 292.504C55.3748 292.504 55.9588 292.672 56.4788 293.008C56.9988 293.344 57.4068 293.832 57.7028 294.472C57.9988 295.112 58.1468 295.888 58.1468 296.8C58.1468 297.712 57.9988 298.488 57.7028 299.128C57.4068 299.768 56.9988 300.256 56.4788 300.592C55.9588 300.928 55.3748 301.096 54.7268 301.096ZM54.7268 300.028C55.1668 300.028 55.5508 299.908 55.8788 299.668C56.2148 299.428 56.4748 299.068 56.6588 298.588C56.8508 298.108 56.9468 297.512 56.9468 296.8C56.9468 296.088 56.8508 295.492 56.6588 295.012C56.4748 294.532 56.2148 294.172 55.8788 293.932C55.5508 293.692 55.1668 293.572 54.7268 293.572C54.2868 293.572 53.8988 293.692 53.5628 293.932C53.2268 294.172 52.9628 294.532 52.7708 295.012C52.5868 295.492 52.4948 296.088 52.4948 296.8C52.4948 297.512 52.5868 298.108 52.7708 298.588C52.9628 299.068 53.2268 299.428 53.5628 299.668C53.8988 299.908 54.2868 300.028 54.7268 300.028Z" fill="white"/>
<path d="M98.0506 301V293.08L98.5666 293.644H96.1546V292.6H99.2386V301H98.0506ZM103.492 301V293.08L104.008 293.644H101.596V292.6H104.68V301H103.492Z" fill="white"/>
<path d="M145.326 301V293.08L145.842 293.644H143.43V292.6H146.514V301H145.326ZM149.219 301V300.184L152.639 296.884C152.943 296.596 153.167 296.344 153.311 296.128C153.463 295.904 153.563 295.7 153.611 295.516C153.667 295.324 153.695 295.14 153.695 294.964C153.695 294.532 153.543 294.192 153.239 293.944C152.935 293.696 152.491 293.572 151.907 293.572C151.459 293.572 151.055 293.648 150.695 293.8C150.335 293.944 150.023 294.172 149.759 294.484L148.943 293.776C149.263 293.368 149.691 293.056 150.227 292.84C150.771 292.616 151.367 292.504 152.015 292.504C152.599 292.504 153.107 292.6 153.539 292.792C153.971 292.976 154.303 293.244 154.535 293.596C154.775 293.948 154.895 294.364 154.895 294.844C154.895 295.116 154.859 295.384 154.787 295.648C154.715 295.912 154.579 296.192 154.379 296.488C154.179 296.784 153.891 297.116 153.515 297.484L150.467 300.424L150.179 299.956H155.255V301H149.219Z" fill="white"/>
<path d="M195.338 301V293.08L195.854 293.644H193.442V292.6H196.526V301H195.338ZM201.931 301.096C201.339 301.096 200.763 301.004 200.203 300.82C199.651 300.636 199.199 300.388 198.847 300.076L199.399 299.128C199.679 299.392 200.043 299.608 200.491 299.776C200.939 299.944 201.419 300.028 201.931 300.028C202.555 300.028 203.039 299.896 203.383 299.632C203.735 299.36 203.911 298.996 203.911 298.54C203.911 298.1 203.743 297.748 203.407 297.484C203.079 297.212 202.555 297.076 201.835 297.076H201.163V296.236L203.659 293.164L203.827 293.644H199.231V292.6H204.775V293.416L202.291 296.476L201.667 296.104H202.063C203.079 296.104 203.839 296.332 204.343 296.788C204.855 297.244 205.111 297.824 205.111 298.528C205.111 299 204.995 299.432 204.763 299.824C204.531 300.216 204.179 300.528 203.707 300.76C203.243 300.984 202.651 301.096 201.931 301.096Z" fill="white"/>
<path d="M245.258 301V293.08L245.774 293.644H243.362V292.6H246.446V301H245.258ZM249.163 298.936V298.096L253.459 292.6H254.755L250.495 298.096L249.883 297.904H256.591V298.936H249.163ZM253.831 301V298.936L253.867 297.904V296.08H254.995V301H253.831Z" fill="white"/>
<path d="M296.326 301V293.08L296.842 293.644H294.43V292.6H297.514V301H296.326ZM303.063 301.096C302.471 301.096 301.895 301.004 301.335 300.82C300.783 300.636 300.331 300.388 299.979 300.076L300.531 299.128C300.811 299.392 301.175 299.608 301.623 299.776C302.071 299.944 302.547 300.028 303.051 300.028C303.691 300.028 304.183 299.892 304.527 299.62C304.871 299.348 305.043 298.984 305.043 298.528C305.043 298.216 304.967 297.944 304.815 297.712C304.663 297.48 304.399 297.304 304.023 297.184C303.655 297.056 303.147 296.992 302.499 296.992H300.591L301.035 292.6H305.775V293.644H301.479L302.103 293.056L301.755 296.524L301.131 295.948H302.751C303.591 295.948 304.267 296.056 304.779 296.272C305.291 296.488 305.663 296.788 305.895 297.172C306.127 297.548 306.243 297.984 306.243 298.48C306.243 298.96 306.127 299.4 305.895 299.8C305.663 300.192 305.311 300.508 304.839 300.748C304.375 300.98 303.783 301.096 303.063 301.096Z" fill="white"/>
<path d="M346.068 301V293.08L346.584 293.644H344.172V292.6H347.256V301H346.068ZM353.622 301.096C352.878 301.096 352.242 300.932 351.714 300.604C351.186 300.276 350.782 299.804 350.502 299.188C350.23 298.564 350.094 297.804 350.094 296.908C350.094 295.956 350.262 295.152 350.598 294.496C350.934 293.84 351.402 293.344 352.002 293.008C352.602 292.672 353.29 292.504 354.066 292.504C354.466 292.504 354.846 292.544 355.206 292.624C355.574 292.704 355.89 292.828 356.154 292.996L355.698 293.932C355.482 293.78 355.234 293.676 354.954 293.62C354.682 293.564 354.394 293.536 354.09 293.536C353.234 293.536 352.554 293.804 352.05 294.34C351.546 294.868 351.294 295.656 351.294 296.704C351.294 296.872 351.302 297.072 351.318 297.304C351.334 297.536 351.374 297.764 351.438 297.988L351.03 297.58C351.15 297.212 351.338 296.904 351.594 296.656C351.858 296.4 352.17 296.212 352.53 296.092C352.898 295.964 353.294 295.9 353.718 295.9C354.278 295.9 354.774 296.004 355.206 296.212C355.638 296.42 355.978 296.716 356.226 297.1C356.474 297.476 356.598 297.924 356.598 298.444C356.598 298.98 356.466 299.448 356.202 299.848C355.938 300.248 355.582 300.556 355.134 300.772C354.686 300.988 354.182 301.096 353.622 301.096ZM353.574 300.124C353.942 300.124 354.262 300.056 354.534 299.92C354.814 299.784 355.034 299.596 355.194 299.356C355.354 299.108 355.434 298.82 355.434 298.492C355.434 297.996 355.262 297.604 354.918 297.316C354.574 297.02 354.106 296.872 353.514 296.872C353.13 296.872 352.794 296.944 352.506 297.088C352.218 297.232 351.99 297.428 351.822 297.676C351.662 297.916 351.582 298.192 351.582 298.504C351.582 298.792 351.658 299.06 351.81 299.308C351.962 299.548 352.186 299.744 352.482 299.896C352.778 300.048 353.142 300.124 353.574 300.124Z" fill="white"/>
<path d="M47.1854 358V350.08L47.7014 350.644H45.2894V349.6H48.3734V358H47.1854ZM52.6628 358L56.2268 350.104L56.5388 350.644H51.5468L52.1468 350.056V352.144H50.9948V349.6H57.3308V350.416L53.9348 358H52.6628Z" fill="white"/>
<path d="M96.41 358V350.08L96.926 350.644H94.514V349.6H97.598V358H96.41ZM103.711 358.096C103.031 358.096 102.443 357.996 101.947 357.796C101.451 357.596 101.067 357.312 100.795 356.944C100.523 356.568 100.387 356.128 100.387 355.624C100.387 355.128 100.515 354.708 100.771 354.364C101.035 354.012 101.415 353.748 101.911 353.572C102.407 353.388 103.007 353.296 103.711 353.296C104.415 353.296 105.015 353.388 105.511 353.572C106.015 353.748 106.399 354.012 106.663 354.364C106.927 354.716 107.059 355.136 107.059 355.624C107.059 356.128 106.923 356.568 106.651 356.944C106.379 357.312 105.991 357.596 105.487 357.796C104.983 357.996 104.391 358.096 103.711 358.096ZM103.711 357.124C104.383 357.124 104.907 356.988 105.283 356.716C105.667 356.436 105.859 356.06 105.859 355.588C105.859 355.124 105.667 354.76 105.283 354.496C104.907 354.224 104.383 354.088 103.711 354.088C103.047 354.088 102.527 354.224 102.151 354.496C101.775 354.76 101.587 355.124 101.587 355.588C101.587 356.06 101.775 356.436 102.151 356.716C102.527 356.988 103.047 357.124 103.711 357.124ZM103.711 353.944C103.071 353.944 102.527 353.86 102.079 353.692C101.631 353.516 101.287 353.268 101.047 352.948C100.807 352.62 100.687 352.232 100.687 351.784C100.687 351.312 100.811 350.908 101.059 350.572C101.315 350.228 101.671 349.964 102.127 349.78C102.583 349.596 103.111 349.504 103.711 349.504C104.319 349.504 104.851 349.596 105.307 349.78C105.763 349.964 106.119 350.228 106.375 350.572C106.631 350.908 106.759 351.312 106.759 351.784C106.759 352.232 106.639 352.62 106.399 352.948C106.159 353.268 105.811 353.516 105.355 353.692C104.899 353.86 104.351 353.944 103.711 353.944ZM103.711 353.176C104.295 353.176 104.751 353.056 105.079 352.816C105.415 352.576 105.583 352.248 105.583 351.832C105.583 351.408 105.411 351.076 105.067 350.836C104.723 350.596 104.271 350.476 103.711 350.476C103.151 350.476 102.703 350.596 102.367 350.836C102.039 351.076 101.875 351.408 101.875 351.832C101.875 352.248 102.035 352.576 102.355 352.816C102.683 353.056 103.135 353.176 103.711 353.176Z" fill="white"/>
<path d="M146.068 358V350.08L146.584 350.644H144.172V349.6H147.256V358H146.068ZM152.818 349.504C153.578 349.504 154.218 349.668 154.738 349.996C155.266 350.324 155.666 350.8 155.938 351.424C156.21 352.04 156.346 352.796 156.346 353.692C156.346 354.644 156.178 355.448 155.842 356.104C155.506 356.76 155.042 357.256 154.45 357.592C153.858 357.928 153.166 358.096 152.374 358.096C151.982 358.096 151.602 358.056 151.234 357.976C150.874 357.896 150.558 357.772 150.286 357.604L150.742 356.668C150.966 356.812 151.214 356.916 151.486 356.98C151.766 357.036 152.058 357.064 152.362 357.064C153.21 357.064 153.886 356.8 154.39 356.272C154.894 355.736 155.146 354.944 155.146 353.896C155.146 353.728 155.138 353.528 155.122 353.296C155.106 353.064 155.07 352.836 155.014 352.612L155.41 353.02C155.298 353.388 155.11 353.7 154.846 353.956C154.59 354.204 154.278 354.392 153.91 354.52C153.55 354.64 153.154 354.7 152.722 354.7C152.17 354.7 151.678 354.596 151.246 354.388C150.814 354.18 150.474 353.888 150.226 353.512C149.978 353.128 149.854 352.676 149.854 352.156C149.854 351.612 149.982 351.144 150.238 350.752C150.502 350.352 150.858 350.044 151.306 349.828C151.762 349.612 152.266 349.504 152.818 349.504ZM152.866 350.476C152.506 350.476 152.186 350.544 151.906 350.68C151.626 350.816 151.406 351.004 151.246 351.244C151.094 351.484 151.018 351.772 151.018 352.108C151.018 352.604 151.19 353 151.534 353.296C151.878 353.584 152.342 353.728 152.926 353.728C153.31 353.728 153.646 353.656 153.934 353.512C154.23 353.368 154.458 353.172 154.618 352.924C154.786 352.676 154.87 352.4 154.87 352.096C154.87 351.8 154.794 351.532 154.642 351.292C154.49 351.052 154.266 350.856 153.97 350.704C153.674 350.552 153.306 350.476 152.866 350.476Z" fill="white"/>
<path d="M193.503 358V357.184L196.923 353.884C197.227 353.596 197.451 353.344 197.595 353.128C197.747 352.904 197.847 352.7 197.895 352.516C197.951 352.324 197.979 352.14 197.979 351.964C197.979 351.532 197.827 351.192 197.523 350.944C197.219 350.696 196.775 350.572 196.191 350.572C195.743 350.572 195.339 350.648 194.979 350.8C194.619 350.944 194.307 351.172 194.043 351.484L193.227 350.776C193.547 350.368 193.975 350.056 194.511 349.84C195.055 349.616 195.651 349.504 196.299 349.504C196.883 349.504 197.391 349.6 197.823 349.792C198.255 349.976 198.587 350.244 198.819 350.596C199.059 350.948 199.179 351.364 199.179 351.844C199.179 352.116 199.143 352.384 199.071 352.648C198.999 352.912 198.863 353.192 198.663 353.488C198.463 353.784 198.175 354.116 197.799 354.484L194.751 357.424L194.463 356.956H199.539V358H193.503ZM204.946 358.096C204.29 358.096 203.702 357.928 203.182 357.592C202.67 357.256 202.262 356.768 201.958 356.128C201.662 355.488 201.514 354.712 201.514 353.8C201.514 352.888 201.662 352.112 201.958 351.472C202.262 350.832 202.67 350.344 203.182 350.008C203.702 349.672 204.29 349.504 204.946 349.504C205.594 349.504 206.178 349.672 206.698 350.008C207.218 350.344 207.626 350.832 207.922 351.472C208.218 352.112 208.366 352.888 208.366 353.8C208.366 354.712 208.218 355.488 207.922 356.128C207.626 356.768 207.218 357.256 206.698 357.592C206.178 357.928 205.594 358.096 204.946 358.096ZM204.946 357.028C205.386 357.028 205.77 356.908 206.098 356.668C206.434 356.428 206.694 356.068 206.878 355.588C207.07 355.108 207.166 354.512 207.166 353.8C207.166 353.088 207.07 352.492 206.878 352.012C206.694 351.532 206.434 351.172 206.098 350.932C205.77 350.692 205.386 350.572 204.946 350.572C204.506 350.572 204.118 350.692 203.782 350.932C203.446 351.172 203.182 351.532 202.99 352.012C202.806 352.492 202.714 353.088 202.714 353.8C202.714 354.512 202.806 355.108 202.99 355.588C203.182 356.068 203.446 356.428 203.782 356.668C204.118 356.908 204.506 357.028 204.946 357.028Z" fill="white"/>
<path d="M245.778 358V357.184L249.198 353.884C249.502 353.596 249.726 353.344 249.87 353.128C250.022 352.904 250.122 352.7 250.17 352.516C250.226 352.324 250.254 352.14 250.254 351.964C250.254 351.532 250.102 351.192 249.798 350.944C249.494 350.696 249.05 350.572 248.466 350.572C248.018 350.572 247.614 350.648 247.254 350.8C246.894 350.944 246.582 351.172 246.318 351.484L245.502 350.776C245.822 350.368 246.25 350.056 246.786 349.84C247.33 349.616 247.926 349.504 248.574 349.504C249.158 349.504 249.666 349.6 250.098 349.792C250.53 349.976 250.862 350.244 251.094 350.596C251.334 350.948 251.454 351.364 251.454 351.844C251.454 352.116 251.418 352.384 251.346 352.648C251.274 352.912 251.138 353.192 250.938 353.488C250.738 353.784 250.45 354.116 250.074 354.484L247.026 357.424L246.738 356.956H251.814V358H245.778ZM255.217 358V350.08L255.733 350.644H253.321V349.6H256.405V358H255.217Z" fill="white"/>
<path d="M294.553 358V357.184L297.973 353.884C298.277 353.596 298.501 353.344 298.645 353.128C298.797 352.904 298.897 352.7 298.945 352.516C299.001 352.324 299.029 352.14 299.029 351.964C299.029 351.532 298.877 351.192 298.573 350.944C298.269 350.696 297.825 350.572 297.241 350.572C296.793 350.572 296.389 350.648 296.029 350.8C295.669 350.944 295.357 351.172 295.093 351.484L294.277 350.776C294.597 350.368 295.025 350.056 295.561 349.84C296.105 349.616 296.701 349.504 297.349 349.504C297.933 349.504 298.441 349.6 298.873 349.792C299.305 349.976 299.637 350.244 299.869 350.596C300.109 350.948 300.229 351.364 300.229 351.844C300.229 352.116 300.193 352.384 300.121 352.648C300.049 352.912 299.913 353.192 299.713 353.488C299.513 353.784 299.225 354.116 298.849 354.484L295.801 357.424L295.513 356.956H300.589V358H294.553ZM302.444 358V357.184L305.864 353.884C306.168 353.596 306.392 353.344 306.536 353.128C306.688 352.904 306.788 352.7 306.836 352.516C306.892 352.324 306.92 352.14 306.92 351.964C306.92 351.532 306.768 351.192 306.464 350.944C306.16 350.696 305.716 350.572 305.132 350.572C304.684 350.572 304.28 350.648 303.92 350.8C303.56 350.944 303.248 351.172 302.984 351.484L302.168 350.776C302.488 350.368 302.916 350.056 303.452 349.84C303.996 349.616 304.592 349.504 305.24 349.504C305.824 349.504 306.332 349.6 306.764 349.792C307.196 349.976 307.528 350.244 307.76 350.596C308 350.948 308.12 351.364 308.12 351.844C308.12 352.116 308.084 352.384 308.012 352.648C307.94 352.912 307.804 353.192 307.604 353.488C307.404 353.784 307.116 354.116 306.74 354.484L303.692 357.424L303.404 356.956H308.48V358H302.444Z" fill="white"/>
<path d="M345.565 358V357.184L348.985 353.884C349.289 353.596 349.513 353.344 349.657 353.128C349.809 352.904 349.909 352.7 349.957 352.516C350.013 352.324 350.041 352.14 350.041 351.964C350.041 351.532 349.889 351.192 349.585 350.944C349.281 350.696 348.837 350.572 348.253 350.572C347.805 350.572 347.401 350.648 347.041 350.8C346.681 350.944 346.369 351.172 346.105 351.484L345.289 350.776C345.609 350.368 346.037 350.056 346.573 349.84C347.117 349.616 347.713 349.504 348.361 349.504C348.945 349.504 349.453 349.6 349.885 349.792C350.317 349.976 350.649 350.244 350.881 350.596C351.121 350.948 351.241 351.364 351.241 351.844C351.241 352.116 351.205 352.384 351.133 352.648C351.061 352.912 350.925 353.192 350.725 353.488C350.525 353.784 350.237 354.116 349.861 354.484L346.813 357.424L346.525 356.956H351.601V358H345.565ZM356.156 358.096C355.564 358.096 354.988 358.004 354.428 357.82C353.876 357.636 353.424 357.388 353.072 357.076L353.624 356.128C353.904 356.392 354.268 356.608 354.716 356.776C355.164 356.944 355.644 357.028 356.156 357.028C356.78 357.028 357.264 356.896 357.608 356.632C357.96 356.36 358.136 355.996 358.136 355.54C358.136 355.1 357.968 354.748 357.632 354.484C357.304 354.212 356.78 354.076 356.06 354.076H355.388V353.236L357.884 350.164L358.052 350.644H353.456V349.6H359V350.416L356.516 353.476L355.892 353.104H356.288C357.304 353.104 358.064 353.332 358.568 353.788C359.08 354.244 359.336 354.824 359.336 355.528C359.336 356 359.22 356.432 358.988 356.824C358.756 357.216 358.404 357.528 357.932 357.76C357.468 357.984 356.876 358.096 356.156 358.096Z" fill="white"/>
<path d="M45.6022 415V414.184L49.0222 410.884C49.3262 410.596 49.5502 410.344 49.6942 410.128C49.8462 409.904 49.9462 409.7 49.9942 409.516C50.0502 409.324 50.0782 409.14 50.0782 408.964C50.0782 408.532 49.9262 408.192 49.6222 407.944C49.3182 407.696 48.8742 407.572 48.2902 407.572C47.8422 407.572 47.4382 407.648 47.0782 407.8C46.7182 407.944 46.4062 408.172 46.1422 408.484L45.3262 407.776C45.6462 407.368 46.0742 407.056 46.6102 406.84C47.1542 406.616 47.7502 406.504 48.3982 406.504C48.9822 406.504 49.4902 406.6 49.9222 406.792C50.3542 406.976 50.6862 407.244 50.9182 407.596C51.1582 407.948 51.2782 408.364 51.2782 408.844C51.2782 409.116 51.2422 409.384 51.1702 409.648C51.0982 409.912 50.9622 410.192 50.7622 410.488C50.5622 410.784 50.2742 411.116 49.8982 411.484L46.8502 414.424L46.5622 413.956H51.6382V415H45.6022ZM53.2705 412.936V412.096L57.5665 406.6H58.8625L54.6025 412.096L53.9905 411.904H60.6985V412.936H53.2705ZM57.9385 415V412.936L57.9745 411.904V410.08H59.1025V415H57.9385Z" fill="white"/>
<path d="M95.5534 415V414.184L98.9734 410.884C99.2774 410.596 99.5014 410.344 99.6454 410.128C99.7974 409.904 99.8974 409.7 99.9454 409.516C100.001 409.324 100.029 409.14 100.029 408.964C100.029 408.532 99.8774 408.192 99.5734 407.944C99.2694 407.696 98.8254 407.572 98.2414 407.572C97.7934 407.572 97.3894 407.648 97.0294 407.8C96.6694 407.944 96.3574 408.172 96.0934 408.484L95.2774 407.776C95.5974 407.368 96.0254 407.056 96.5614 406.84C97.1054 406.616 97.7014 406.504 98.3494 406.504C98.9334 406.504 99.4414 406.6 99.8734 406.792C100.305 406.976 100.637 407.244 100.869 407.596C101.109 407.948 101.229 408.364 101.229 408.844C101.229 409.116 101.193 409.384 101.121 409.648C101.049 409.912 100.913 410.192 100.713 410.488C100.513 410.784 100.225 411.116 99.8494 411.484L96.8014 414.424L96.5134 413.956H101.589V415H95.5534ZM106.288 415.096C105.696 415.096 105.12 415.004 104.56 414.82C104.008 414.636 103.556 414.388 103.204 414.076L103.756 413.128C104.036 413.392 104.4 413.608 104.848 413.776C105.296 413.944 105.772 414.028 106.276 414.028C106.916 414.028 107.408 413.892 107.752 413.62C108.096 413.348 108.268 412.984 108.268 412.528C108.268 412.216 108.192 411.944 108.04 411.712C107.888 411.48 107.624 411.304 107.248 411.184C106.88 411.056 106.372 410.992 105.724 410.992H103.816L104.26 406.6H109V407.644H104.704L105.328 407.056L104.98 410.524L104.356 409.948H105.976C106.816 409.948 107.492 410.056 108.004 410.272C108.516 410.488 108.888 410.788 109.12 411.172C109.352 411.548 109.468 411.984 109.468 412.48C109.468 412.96 109.352 413.4 109.12 413.8C108.888 414.192 108.536 414.508 108.064 414.748C107.6 414.98 107.008 415.096 106.288 415.096Z" fill="white"/>
<path d="M144.801 415V414.184L148.221 410.884C148.525 410.596 148.749 410.344 148.893 410.128C149.045 409.904 149.145 409.7 149.193 409.516C149.249 409.324 149.277 409.14 149.277 408.964C149.277 408.532 149.125 408.192 148.821 407.944C148.517 407.696 148.073 407.572 147.489 407.572C147.041 407.572 146.637 407.648 146.277 407.8C145.917 407.944 145.605 408.172 145.341 408.484L144.525 407.776C144.845 407.368 145.273 407.056 145.809 406.84C146.353 406.616 146.949 406.504 147.597 406.504C148.181 406.504 148.689 406.6 149.121 406.792C149.553 406.976 149.885 407.244 150.117 407.596C150.357 407.948 150.477 408.364 150.477 408.844C150.477 409.116 150.441 409.384 150.369 409.648C150.297 409.912 150.161 410.192 149.961 410.488C149.761 410.784 149.473 411.116 149.097 411.484L146.049 414.424L145.761 413.956H150.837V415H144.801ZM156.34 415.096C155.596 415.096 154.96 414.932 154.432 414.604C153.904 414.276 153.5 413.804 153.22 413.188C152.948 412.564 152.812 411.804 152.812 410.908C152.812 409.956 152.98 409.152 153.316 408.496C153.652 407.84 154.12 407.344 154.72 407.008C155.32 406.672 156.008 406.504 156.784 406.504C157.184 406.504 157.564 406.544 157.924 406.624C158.292 406.704 158.608 406.828 158.872 406.996L158.416 407.932C158.2 407.78 157.952 407.676 157.672 407.62C157.4 407.564 157.112 407.536 156.808 407.536C155.952 407.536 155.272 407.804 154.768 408.34C154.264 408.868 154.012 409.656 154.012 410.704C154.012 410.872 154.02 411.072 154.036 411.304C154.052 411.536 154.092 411.764 154.156 411.988L153.748 411.58C153.868 411.212 154.056 410.904 154.312 410.656C154.576 410.4 154.888 410.212 155.248 410.092C155.616 409.964 156.012 409.9 156.436 409.9C156.996 409.9 157.492 410.004 157.924 410.212C158.356 410.42 158.696 410.716 158.944 411.1C159.192 411.476 159.316 411.924 159.316 412.444C159.316 412.98 159.184 413.448 158.92 413.848C158.656 414.248 158.3 414.556 157.852 414.772C157.404 414.988 156.9 415.096 156.34 415.096ZM156.292 414.124C156.66 414.124 156.98 414.056 157.252 413.92C157.532 413.784 157.752 413.596 157.912 413.356C158.072 413.108 158.152 412.82 158.152 412.492C158.152 411.996 157.98 411.604 157.636 411.316C157.292 411.02 156.824 410.872 156.232 410.872C155.848 410.872 155.512 410.944 155.224 411.088C154.936 411.232 154.708 411.428 154.54 411.676C154.38 411.916 154.3 412.192 154.3 412.504C154.3 412.792 154.376 413.06 154.528 413.308C154.68 413.548 154.904 413.744 155.2 413.896C155.496 414.048 155.86 414.124 156.292 414.124Z" fill="white"/>
<path d="M194.919 415V414.184L198.339 410.884C198.643 410.596 198.867 410.344 199.011 410.128C199.163 409.904 199.263 409.7 199.311 409.516C199.367 409.324 199.395 409.14 199.395 408.964C199.395 408.532 199.243 408.192 198.939 407.944C198.635 407.696 198.191 407.572 197.607 407.572C197.159 407.572 196.755 407.648 196.395 407.8C196.035 407.944 195.723 408.172 195.459 408.484L194.643 407.776C194.963 407.368 195.391 407.056 195.927 406.84C196.471 406.616 197.067 406.504 197.715 406.504C198.299 406.504 198.807 406.6 199.239 406.792C199.671 406.976 200.003 407.244 200.235 407.596C200.475 407.948 200.595 408.364 200.595 408.844C200.595 409.116 200.559 409.384 200.487 409.648C200.415 409.912 200.279 410.192 200.079 410.488C199.879 410.784 199.591 411.116 199.215 411.484L196.167 414.424L195.879 413.956H200.955V415H194.919ZM204.382 415L207.946 407.104L208.258 407.644H203.266L203.866 407.056V409.144H202.714V406.6H209.05V407.416L205.654 415H204.382Z" fill="#DFE5F1"/>
<path d="M244.637 415V414.184L248.057 410.884C248.361 410.596 248.585 410.344 248.729 410.128C248.881 409.904 248.981 409.7 249.029 409.516C249.085 409.324 249.113 409.14 249.113 408.964C249.113 408.532 248.961 408.192 248.657 407.944C248.353 407.696 247.909 407.572 247.325 407.572C246.877 407.572 246.473 407.648 246.113 407.8C245.753 407.944 245.441 408.172 245.177 408.484L244.361 407.776C244.681 407.368 245.109 407.056 245.645 406.84C246.189 406.616 246.785 406.504 247.433 406.504C248.017 406.504 248.525 406.6 248.957 406.792C249.389 406.976 249.721 407.244 249.953 407.596C250.193 407.948 250.313 408.364 250.313 408.844C250.313 409.116 250.277 409.384 250.205 409.648C250.133 409.912 249.997 410.192 249.797 410.488C249.597 410.784 249.309 411.116 248.933 411.484L245.885 414.424L245.597 413.956H250.673V415H244.637ZM255.936 415.096C255.256 415.096 254.668 414.996 254.172 414.796C253.676 414.596 253.292 414.312 253.02 413.944C252.748 413.568 252.612 413.128 252.612 412.624C252.612 412.128 252.74 411.708 252.996 411.364C253.26 411.012 253.64 410.748 254.136 410.572C254.632 410.388 255.232 410.296 255.936 410.296C256.64 410.296 257.24 410.388 257.736 410.572C258.24 410.748 258.624 411.012 258.888 411.364C259.152 411.716 259.284 412.136 259.284 412.624C259.284 413.128 259.148 413.568 258.876 413.944C258.604 414.312 258.216 414.596 257.712 414.796C257.208 414.996 256.616 415.096 255.936 415.096ZM255.936 414.124C256.608 414.124 257.132 413.988 257.508 413.716C257.892 413.436 258.084 413.06 258.084 412.588C258.084 412.124 257.892 411.76 257.508 411.496C257.132 411.224 256.608 411.088 255.936 411.088C255.272 411.088 254.752 411.224 254.376 411.496C254 411.76 253.812 412.124 253.812 412.588C253.812 413.06 254 413.436 254.376 413.716C254.752 413.988 255.272 414.124 255.936 414.124ZM255.936 410.944C255.296 410.944 254.752 410.86 254.304 410.692C253.856 410.516 253.512 410.268 253.272 409.948C253.032 409.62 252.912 409.232 252.912 408.784C252.912 408.312 253.036 407.908 253.284 407.572C253.54 407.228 253.896 406.964 254.352 406.78C254.808 406.596 255.336 406.504 255.936 406.504C256.544 406.504 257.076 406.596 257.532 406.78C257.988 406.964 258.344 407.228 258.6 407.572C258.856 407.908 258.984 408.312 258.984 408.784C258.984 409.232 258.864 409.62 258.624 409.948C258.384 410.268 258.036 410.516 257.58 410.692C257.124 410.86 256.576 410.944 255.936 410.944ZM255.936 410.176C256.52 410.176 256.976 410.056 257.304 409.816C257.64 409.576 257.808 409.248 257.808 408.832C257.808 408.408 257.636 408.076 257.292 407.836C256.948 407.596 256.496 407.476 255.936 407.476C255.376 407.476 254.928 407.596 254.592 407.836C254.264 408.076 254.1 408.408 254.1 408.832C254.1 409.248 254.26 409.576 254.58 409.816C254.908 410.056 255.36 410.176 255.936 410.176Z" fill="white"/>
<path d="M294.796 415V414.184L298.216 410.884C298.52 410.596 298.744 410.344 298.888 410.128C299.04 409.904 299.14 409.7 299.188 409.516C299.244 409.324 299.272 409.14 299.272 408.964C299.272 408.532 299.12 408.192 298.816 407.944C298.512 407.696 298.068 407.572 297.484 407.572C297.036 407.572 296.632 407.648 296.272 407.8C295.912 407.944 295.6 408.172 295.336 408.484L294.52 407.776C294.84 407.368 295.268 407.056 295.804 406.84C296.348 406.616 296.944 406.504 297.592 406.504C298.176 406.504 298.684 406.6 299.116 406.792C299.548 406.976 299.88 407.244 300.112 407.596C300.352 407.948 300.472 408.364 300.472 408.844C300.472 409.116 300.436 409.384 300.364 409.648C300.292 409.912 300.156 410.192 299.956 410.488C299.756 410.784 299.468 411.116 299.092 411.484L296.044 414.424L295.756 413.956H300.832V415H294.796ZM305.542 406.504C306.302 406.504 306.942 406.668 307.462 406.996C307.99 407.324 308.39 407.8 308.662 408.424C308.934 409.04 309.07 409.796 309.07 410.692C309.07 411.644 308.902 412.448 308.566 413.104C308.23 413.76 307.766 414.256 307.174 414.592C306.582 414.928 305.89 415.096 305.098 415.096C304.706 415.096 304.326 415.056 303.958 414.976C303.598 414.896 303.282 414.772 303.01 414.604L303.466 413.668C303.69 413.812 303.938 413.916 304.21 413.98C304.49 414.036 304.782 414.064 305.086 414.064C305.934 414.064 306.61 413.8 307.114 413.272C307.618 412.736 307.87 411.944 307.87 410.896C307.87 410.728 307.862 410.528 307.846 410.296C307.83 410.064 307.794 409.836 307.738 409.612L308.134 410.02C308.022 410.388 307.834 410.7 307.57 410.956C307.314 411.204 307.002 411.392 306.634 411.52C306.274 411.64 305.878 411.7 305.446 411.7C304.894 411.7 304.402 411.596 303.97 411.388C303.538 411.18 303.198 410.888 302.95 410.512C302.702 410.128 302.578 409.676 302.578 409.156C302.578 408.612 302.706 408.144 302.962 407.752C303.226 407.352 303.582 407.044 304.03 406.828C304.486 406.612 304.99 406.504 305.542 406.504ZM305.59 407.476C305.23 407.476 304.91 407.544 304.63 407.68C304.35 407.816 304.13 408.004 303.97 408.244C303.818 408.484 303.742 408.772 303.742 409.108C303.742 409.604 303.914 410 304.258 410.296C304.602 410.584 305.066 410.728 305.65 410.728C306.034 410.728 306.37 410.656 306.658 410.512C306.954 410.368 307.182 410.172 307.342 409.924C307.51 409.676 307.594 409.4 307.594 409.096C307.594 408.8 307.518 408.532 307.366 408.292C307.214 408.052 306.99 407.856 306.694 407.704C306.398 407.552 306.03 407.476 305.59 407.476Z" fill="white"/>
<path d="M347.208 415.096C346.616 415.096 346.04 415.004 345.48 414.82C344.928 414.636 344.476 414.388 344.124 414.076L344.676 413.128C344.956 413.392 345.32 413.608 345.768 413.776C346.216 413.944 346.696 414.028 347.208 414.028C347.832 414.028 348.316 413.896 348.66 413.632C349.012 413.36 349.188 412.996 349.188 412.54C349.188 412.1 349.02 411.748 348.684 411.484C348.356 411.212 347.832 411.076 347.112 411.076H346.44V410.236L348.936 407.164L349.104 407.644H344.508V406.6H350.052V407.416L347.568 410.476L346.944 410.104H347.34C348.356 410.104 349.116 410.332 349.62 410.788C350.132 411.244 350.388 411.824 350.388 412.528C350.388 413 350.272 413.432 350.04 413.824C349.808 414.216 349.456 414.528 348.984 414.76C348.52 414.984 347.928 415.096 347.208 415.096ZM355.94 415.096C355.284 415.096 354.696 414.928 354.176 414.592C353.664 414.256 353.256 413.768 352.952 413.128C352.656 412.488 352.508 411.712 352.508 410.8C352.508 409.888 352.656 409.112 352.952 408.472C353.256 407.832 353.664 407.344 354.176 407.008C354.696 406.672 355.284 406.504 355.94 406.504C356.588 406.504 357.172 406.672 357.692 407.008C358.212 407.344 358.62 407.832 358.916 408.472C359.212 409.112 359.36 409.888 359.36 410.8C359.36 411.712 359.212 412.488 358.916 413.128C358.62 413.768 358.212 414.256 357.692 414.592C357.172 414.928 356.588 415.096 355.94 415.096ZM355.94 414.028C356.38 414.028 356.764 413.908 357.092 413.668C357.428 413.428 357.688 413.068 357.872 412.588C358.064 412.108 358.16 411.512 358.16 410.8C358.16 410.088 358.064 409.492 357.872 409.012C357.688 408.532 357.428 408.172 357.092 407.932C356.764 407.692 356.38 407.572 355.94 407.572C355.5 407.572 355.112 407.692 354.776 407.932C354.44 408.172 354.176 408.532 353.984 409.012C353.8 409.492 353.708 410.088 353.708 410.8C353.708 411.512 353.8 412.108 353.984 412.588C354.176 413.068 354.44 413.428 354.776 413.668C355.112 413.908 355.5 414.028 355.94 414.028Z" fill="white"/>
<path d="M48.4897 472.096C47.8977 472.096 47.3217 472.004 46.7617 471.82C46.2097 471.636 45.7577 471.388 45.4057 471.076L45.9577 470.128C46.2377 470.392 46.6017 470.608 47.0497 470.776C47.4977 470.944 47.9777 471.028 48.4897 471.028C49.1137 471.028 49.5977 470.896 49.9417 470.632C50.2937 470.36 50.4697 469.996 50.4697 469.54C50.4697 469.1 50.3017 468.748 49.9657 468.484C49.6377 468.212 49.1137 468.076 48.3937 468.076H47.7217V467.236L50.2177 464.164L50.3857 464.644H45.7897V463.6H51.3337V464.416L48.8497 467.476L48.2257 467.104H48.6217C49.6377 467.104 50.3977 467.332 50.9017 467.788C51.4137 468.244 51.6697 468.824 51.6697 469.528C51.6697 470 51.5537 470.432 51.3217 470.824C51.0897 471.216 50.7377 471.528 50.2657 471.76C49.8017 471.984 49.2097 472.096 48.4897 472.096ZM55.2049 472V464.08L55.7209 464.644H53.3089V463.6H56.3929V472H55.2049Z" fill="white"/>
<path d="M301.988 314.688C301.663 314.606 301.338 314.444 301.094 314.2C300.85 314.119 300.769 313.875 300.769 313.713C300.769 313.55 300.85 313.306 301.012 313.225C301.256 313.062 301.5 312.9 301.744 312.981C302.231 312.981 302.637 313.225 302.881 313.55L303.613 312.575C303.369 312.331 303.125 312.169 302.881 312.006C302.637 311.844 302.313 311.763 301.988 311.763V310.625H301.012V311.763C300.606 311.844 300.2 312.087 299.875 312.412C299.55 312.819 299.306 313.306 299.388 313.794C299.388 314.281 299.55 314.769 299.875 315.094C300.281 315.5 300.85 315.744 301.338 315.988C301.581 316.069 301.906 316.231 302.15 316.394C302.312 316.556 302.394 316.8 302.394 317.044C302.394 317.287 302.312 317.531 302.15 317.775C301.906 318.019 301.581 318.1 301.338 318.1C301.013 318.1 300.606 318.019 300.363 317.775C300.119 317.613 299.875 317.369 299.713 317.125L298.9 318.019C299.144 318.344 299.388 318.588 299.713 318.831C300.119 319.075 300.606 319.319 301.094 319.319V320.375H301.988V319.156C302.475 319.075 302.881 318.831 303.206 318.506C303.613 318.1 303.856 317.45 303.856 316.881C303.856 316.394 303.694 315.825 303.287 315.5C302.881 315.094 302.475 314.85 301.988 314.688ZM301.5 309C297.925 309 295 311.925 295 315.5C295 319.075 297.925 322 301.5 322C305.075 322 308 319.075 308 315.5C308 311.925 305.075 309 301.5 309ZM301.5 321.106C298.413 321.106 295.894 318.587 295.894 315.5C295.894 312.413 298.413 309.894 301.5 309.894C304.587 309.894 307.106 312.413 307.106 315.5C307.106 318.587 304.587 321.106 301.5 321.106Z" fill="url(#paint3_linear_1_7)"/>
<path fill-rule="evenodd" clip-rule="evenodd" d="M253.629 371.625C253.723 371.625 253.817 371.644 253.904 371.68C253.991 371.716 254.07 371.769 254.137 371.836C254.204 371.902 254.257 371.982 254.293 372.069C254.329 372.156 254.348 372.25 254.348 372.344V376.584C254.348 376.679 254.329 376.772 254.293 376.86C254.257 376.947 254.204 377.026 254.137 377.093C254.07 377.16 253.991 377.213 253.904 377.249C253.817 377.285 253.723 377.304 253.629 377.304H249.344C249.249 377.304 249.156 377.285 249.069 377.249C248.981 377.213 248.902 377.16 248.835 377.093C248.769 377.026 248.716 376.947 248.68 376.86C248.643 376.772 248.625 376.679 248.625 376.584V372.344C248.625 372.153 248.701 371.971 248.836 371.836C248.97 371.701 249.153 371.625 249.344 371.625H253.629Z" fill="url(#paint4_linear_1_7)"/>
<g clip-path="url(#clip1_1_7)">
<path d="M154.576 374.974H154.58C154.929 374.974 155.27 374.942 155.601 374.881L155.567 374.886C154.947 377.119 152.932 378.731 150.54 378.731H150.509H150.51C147.616 378.728 145.271 376.382 145.268 373.488V373.487C145.275 372.349 145.649 371.243 146.335 370.334C147.021 369.425 147.982 368.762 149.075 368.443L149.113 368.434C149.054 368.759 149.024 369.089 149.025 369.42V369.423C149.028 372.488 151.511 374.972 154.576 374.974H154.576L154.576 374.974ZM150.503 367.255C150.439 367.167 150.353 367.099 150.254 367.054C150.155 367.01 150.046 366.992 149.938 367.003H149.941C146.607 367.323 144.018 370.1 144 373.487V373.489C144.004 377.083 146.917 379.995 150.51 380H150.543C153.925 380 156.7 377.408 156.992 374.102L156.994 374.077C157.003 373.974 156.987 373.871 156.947 373.776C156.907 373.68 156.844 373.596 156.764 373.531L156.763 373.53C156.683 373.463 156.587 373.418 156.484 373.398C156.382 373.378 156.276 373.383 156.176 373.414L156.18 373.413L155.897 373.498C155.471 373.637 155.026 373.708 154.578 373.706H154.574C153.439 373.705 152.351 373.254 151.548 372.451C150.746 371.649 150.294 370.56 150.293 369.426V369.416C150.293 368.858 150.4 368.325 150.595 367.837L150.585 367.866C150.625 367.765 150.638 367.655 150.623 367.547C150.609 367.44 150.567 367.338 150.501 367.251L150.502 367.253L150.503 367.255Z" fill="#FF7B00"/>
</g>
<path d="M301.271 190V182.08L301.787 182.644H299.375V181.6H302.459V190H301.271Z" fill="white"/>
<path d="M350.499 190V189.184L353.919 185.884C354.223 185.596 354.447 185.344 354.591 185.128C354.743 184.904 354.843 184.7 354.891 184.516C354.947 184.324 354.975 184.14 354.975 183.964C354.975 183.532 354.823 183.192 354.519 182.944C354.215 182.696 353.771 182.572 353.187 182.572C352.739 182.572 352.335 182.648 351.975 182.8C351.615 182.944 351.303 183.172 351.039 183.484L350.223 182.776C350.543 182.368 350.971 182.056 351.507 181.84C352.051 181.616 352.647 181.504 353.295 181.504C353.879 181.504 354.387 181.6 354.819 181.792C355.251 181.976 355.583 182.244 355.815 182.596C356.055 182.948 356.175 183.364 356.175 183.844C356.175 184.116 356.139 184.384 356.067 184.648C355.995 184.912 355.859 185.192 355.659 185.488C355.459 185.784 355.171 186.116 354.795 186.484L351.747 189.424L351.459 188.956H356.535V190H350.499Z" fill="white"/>
<path d="M28.0423 159V149.9H29.4333L33.4113 156.543H32.6833L36.5963 149.9H37.9873L38.0003 159H36.4013L36.3883 152.409H36.7263L33.3983 157.96H32.6443L29.2643 152.409H29.6543V159H28.0423ZM45.7223 159.13C45.0117 159.13 44.3573 159.013 43.7593 158.779C43.1613 158.545 42.6413 158.22 42.1993 157.804C41.7573 157.379 41.415 156.885 41.1723 156.322C40.9297 155.75 40.8083 155.126 40.8083 154.45C40.8083 153.774 40.9297 153.154 41.1723 152.591C41.415 152.019 41.7573 151.525 42.1993 151.109C42.6413 150.684 43.1613 150.355 43.7593 150.121C44.3573 149.887 45.0073 149.77 45.7093 149.77C46.42 149.77 47.07 149.887 47.6593 150.121C48.2573 150.355 48.7773 150.684 49.2193 151.109C49.6613 151.525 50.0037 152.019 50.2463 152.591C50.489 153.154 50.6103 153.774 50.6103 154.45C50.6103 155.126 50.489 155.75 50.2463 156.322C50.0037 156.894 49.6613 157.388 49.2193 157.804C48.7773 158.22 48.2573 158.545 47.6593 158.779C47.07 159.013 46.4243 159.13 45.7223 159.13ZM45.7093 157.648C46.1687 157.648 46.5933 157.57 46.9833 157.414C47.3733 157.258 47.7113 157.037 47.9973 156.751C48.2833 156.456 48.5043 156.118 48.6603 155.737C48.825 155.347 48.9073 154.918 48.9073 154.45C48.9073 153.982 48.825 153.557 48.6603 153.176C48.5043 152.786 48.2833 152.448 47.9973 152.162C47.7113 151.867 47.3733 151.642 46.9833 151.486C46.5933 151.33 46.1687 151.252 45.7093 151.252C45.25 151.252 44.8253 151.33 44.4353 151.486C44.054 151.642 43.716 151.867 43.4213 152.162C43.1353 152.448 42.91 152.786 42.7453 153.176C42.5893 153.557 42.5113 153.982 42.5113 154.45C42.5113 154.909 42.5893 155.334 42.7453 155.724C42.91 156.114 43.1353 156.456 43.4213 156.751C43.7073 157.037 44.0453 157.258 44.4353 157.414C44.8253 157.57 45.25 157.648 45.7093 157.648Z" fill="url(#paint5_linear_1_7)"/>
<path d="M78.757 159V151.33H75.741V149.9H83.463V151.33H80.447V159H78.757ZM88.4792 159.13C87.2312 159.13 86.2519 158.779 85.5412 158.077C84.8392 157.375 84.4882 156.361 84.4882 155.035V149.9H86.1782V154.97C86.1782 155.906 86.3776 156.586 86.7762 157.011C87.1836 157.436 87.7556 157.648 88.4922 157.648C89.2289 157.648 89.7966 157.436 90.1952 157.011C90.5939 156.586 90.7932 155.906 90.7932 154.97V149.9H92.4572V155.035C92.4572 156.361 92.1019 157.375 91.3912 158.077C90.6892 158.779 89.7186 159.13 88.4792 159.13ZM96.3841 153.683H100.908V155.074H96.3841V153.683ZM96.5141 157.583H101.649V159H94.8241V149.9H101.467V151.317H96.5141V157.583Z" fill="url(#paint6_linear_1_7)"/>
<path d="M130.305 159L127.289 149.9H129.044L131.735 158.129H130.864L133.659 149.9H135.219L137.936 158.129H137.091L139.847 149.9H141.459L138.443 159H136.649L134.166 151.577H134.634L132.112 159H130.305ZM144.395 153.683H148.919V155.074H144.395V153.683ZM144.525 157.583H149.66V159H142.835V149.9H149.478V151.317H144.525V157.583ZM151.544 159V149.9H155.522C156.51 149.9 157.377 150.091 158.122 150.472C158.868 150.853 159.448 151.382 159.864 152.058C160.28 152.734 160.488 153.531 160.488 154.45C160.488 155.36 160.28 156.157 159.864 156.842C159.448 157.518 158.868 158.047 158.122 158.428C157.377 158.809 156.51 159 155.522 159H151.544ZM153.234 157.57H155.444C156.129 157.57 156.718 157.44 157.212 157.18C157.715 156.92 158.101 156.556 158.369 156.088C158.647 155.62 158.785 155.074 158.785 154.45C158.785 153.817 158.647 153.271 158.369 152.812C158.101 152.344 157.715 151.98 157.212 151.72C156.718 151.46 156.129 151.33 155.444 151.33H153.234V157.57Z" fill="url(#paint7_linear_1_7)"/>
<path d="M188.767 159V151.33H185.751V149.9H193.473V151.33H190.457V159H188.767ZM201.137 149.9H202.827V159H201.137V149.9ZM196.431 159H194.741V149.9H196.431V159ZM201.267 155.1H196.288V153.657H201.267V155.1ZM209.178 159.13C207.93 159.13 206.951 158.779 206.24 158.077C205.538 157.375 205.187 156.361 205.187 155.035V149.9H206.877V154.97C206.877 155.906 207.077 156.586 207.475 157.011C207.883 157.436 208.455 157.648 209.191 157.648C209.928 157.648 210.496 157.436 210.894 157.011C211.293 156.586 211.492 155.906 211.492 154.97V149.9H213.156V155.035C213.156 156.361 212.801 157.375 212.09 158.077C211.388 158.779 210.418 159.13 209.178 159.13Z" fill="url(#paint8_linear_1_7)"/>
<path d="M241.3 154.086H245.837V155.516H241.3V154.086ZM241.443 159H239.753V149.9H246.396V151.317H241.443V159ZM248.031 159V149.9H251.775C252.581 149.9 253.27 150.03 253.842 150.29C254.422 150.55 254.869 150.923 255.181 151.408C255.493 151.893 255.649 152.47 255.649 153.137C255.649 153.804 255.493 154.381 255.181 154.866C254.869 155.343 254.422 155.711 253.842 155.971C253.27 156.222 252.581 156.348 251.775 156.348H248.967L249.721 155.581V159H248.031ZM253.985 159L251.684 155.698H253.491L255.805 159H253.985ZM249.721 155.763L248.967 154.957H251.697C252.442 154.957 253.001 154.797 253.374 154.476C253.755 154.155 253.946 153.709 253.946 153.137C253.946 152.556 253.755 152.11 253.374 151.798C253.001 151.486 252.442 151.33 251.697 151.33H248.967L249.721 150.498V155.763ZM257.539 159V149.9H259.229V159H257.539Z" fill="url(#paint9_linear_1_7)"/>
<path d="M288.905 159.13C288.194 159.13 287.514 159.03 286.864 158.831C286.214 158.623 285.698 158.359 285.317 158.038L285.902 156.725C286.266 157.011 286.716 157.249 287.254 157.44C287.791 157.631 288.341 157.726 288.905 157.726C289.381 157.726 289.767 157.674 290.062 157.57C290.356 157.466 290.573 157.327 290.712 157.154C290.85 156.972 290.92 156.768 290.92 156.543C290.92 156.266 290.82 156.045 290.621 155.88C290.421 155.707 290.161 155.572 289.841 155.477C289.529 155.373 289.178 155.278 288.788 155.191C288.406 155.104 288.021 155.005 287.631 154.892C287.249 154.771 286.898 154.619 286.578 154.437C286.266 154.246 286.01 153.995 285.811 153.683C285.611 153.371 285.512 152.972 285.512 152.487C285.512 151.993 285.642 151.542 285.902 151.135C286.17 150.719 286.573 150.39 287.111 150.147C287.657 149.896 288.346 149.77 289.178 149.77C289.724 149.77 290.265 149.839 290.803 149.978C291.34 150.117 291.808 150.316 292.207 150.576L291.674 151.889C291.266 151.646 290.846 151.469 290.413 151.356C289.979 151.235 289.563 151.174 289.165 151.174C288.697 151.174 288.315 151.23 288.021 151.343C287.735 151.456 287.522 151.603 287.384 151.785C287.254 151.967 287.189 152.175 287.189 152.409C287.189 152.686 287.284 152.912 287.475 153.085C287.674 153.25 287.93 153.38 288.242 153.475C288.562 153.57 288.918 153.666 289.308 153.761C289.698 153.848 290.083 153.947 290.465 154.06C290.855 154.173 291.206 154.32 291.518 154.502C291.838 154.684 292.094 154.931 292.285 155.243C292.484 155.555 292.584 155.949 292.584 156.426C292.584 156.911 292.449 157.362 292.181 157.778C291.921 158.185 291.518 158.515 290.972 158.766C290.426 159.009 289.737 159.13 288.905 159.13ZM292.973 159L297.068 149.9H298.732L302.84 159H301.072L297.549 150.797H298.225L294.715 159H292.973ZM294.858 156.894L295.313 155.568H300.227L300.682 156.894H294.858ZM305.386 159V151.33H302.37V149.9H310.092V151.33H307.076V159H305.386Z" fill="url(#paint10_linear_1_7)"/>
<path d="M338.564 159.13C337.853 159.13 337.173 159.03 336.523 158.831C335.873 158.623 335.357 158.359 334.976 158.038L335.561 156.725C335.925 157.011 336.376 157.249 336.913 157.44C337.45 157.631 338.001 157.726 338.564 157.726C339.041 157.726 339.426 157.674 339.721 157.57C340.016 157.466 340.232 157.327 340.371 157.154C340.51 156.972 340.579 156.768 340.579 156.543C340.579 156.266 340.479 156.045 340.28 155.88C340.081 155.707 339.821 155.572 339.5 155.477C339.188 155.373 338.837 155.278 338.447 155.191C338.066 155.104 337.68 155.005 337.29 154.892C336.909 154.771 336.558 154.619 336.237 154.437C335.925 154.246 335.669 153.995 335.47 153.683C335.271 153.371 335.171 152.972 335.171 152.487C335.171 151.993 335.301 151.542 335.561 151.135C335.83 150.719 336.233 150.39 336.77 150.147C337.316 149.896 338.005 149.77 338.837 149.77C339.383 149.77 339.925 149.839 340.462 149.978C340.999 150.117 341.467 150.316 341.866 150.576L341.333 151.889C340.926 151.646 340.505 151.469 340.072 151.356C339.639 151.235 339.223 151.174 338.824 151.174C338.356 151.174 337.975 151.23 337.68 151.343C337.394 151.456 337.182 151.603 337.043 151.785C336.913 151.967 336.848 152.175 336.848 152.409C336.848 152.686 336.943 152.912 337.134 153.085C337.333 153.25 337.589 153.38 337.901 153.475C338.222 153.57 338.577 153.666 338.967 153.761C339.357 153.848 339.743 153.947 340.124 154.06C340.514 154.173 340.865 154.32 341.177 154.502C341.498 154.684 341.753 154.931 341.944 155.243C342.143 155.555 342.243 155.949 342.243 156.426C342.243 156.911 342.109 157.362 341.84 157.778C341.58 158.185 341.177 158.515 340.631 158.766C340.085 159.009 339.396 159.13 338.564 159.13ZM347.832 159.13C346.584 159.13 345.604 158.779 344.894 158.077C344.192 157.375 343.841 156.361 343.841 155.035V149.9H345.531V154.97C345.531 155.906 345.73 156.586 346.129 157.011C346.536 157.436 347.108 157.648 347.845 157.648C348.581 157.648 349.149 157.436 349.548 157.011C349.946 156.586 350.146 155.906 350.146 154.97V149.9H351.81V155.035C351.81 156.361 351.454 157.375 350.744 158.077C350.042 158.779 349.071 159.13 347.832 159.13ZM354.177 159V149.9H355.568L361.275 156.907H360.586V149.9H362.263V159H360.872L355.165 151.993H355.854V159H354.177Z" fill="url(#paint11_linear_1_7)"/>
<rect y="116" width="390" height="1" fill="url(#paint12_linear_1_7)" fill-opacity="0.3"/>
<path d="M147.696 75V74.04L159.696 61.96C160.869 60.8133 161.749 59.8 162.336 58.92C162.922 58.04 163.322 57.2267 163.536 56.48C163.749 55.7067 163.856 54.9467 163.856 54.2C163.856 52.3333 163.216 50.8533 161.936 49.76C160.656 48.64 158.802 48.08 156.376 48.08C154.509 48.08 152.882 48.36 151.496 48.92C150.136 49.4533 148.962 50.2933 147.976 51.44L147.056 50.56C148.096 49.36 149.402 48.44 150.976 47.8C152.549 47.16 154.362 46.84 156.416 46.84C158.202 46.84 159.749 47.1333 161.056 47.72C162.389 48.3067 163.402 49.1467 164.096 50.24C164.816 51.3067 165.176 52.6 165.176 54.12C165.176 55 165.056 55.8667 164.816 56.72C164.576 57.5733 164.122 58.4933 163.456 59.48C162.816 60.44 161.882 61.5333 160.656 62.76L149.176 74.32L148.616 73.76H166.656V75H147.696ZM182.244 75.16C180.137 75.16 178.257 74.5867 176.604 73.44C174.977 72.2667 173.711 70.6267 172.804 68.52C171.897 66.3867 171.444 63.88 171.444 61C171.444 58.12 171.897 55.6267 172.804 53.52C173.711 51.3867 174.977 49.7467 176.604 48.6C178.257 47.4267 180.137 46.84 182.244 46.84C184.404 46.84 186.284 47.4267 187.884 48.6C189.511 49.7467 190.777 51.3867 191.684 53.52C192.591 55.6267 193.044 58.12 193.044 61C193.044 63.88 192.591 66.3867 191.684 68.52C190.777 70.6267 189.511 72.2667 187.884 73.44C186.284 74.5867 184.404 75.16 182.244 75.16ZM182.244 73.92C184.137 73.92 185.791 73.4 187.204 72.36C188.617 71.32 189.724 69.84 190.524 67.92C191.324 65.9733 191.724 63.6667 191.724 61C191.724 58.3067 191.324 56 190.524 54.08C189.724 52.16 188.617 50.68 187.204 49.64C185.791 48.6 184.137 48.08 182.244 48.08C180.377 48.08 178.724 48.6 177.284 49.64C175.871 50.68 174.764 52.16 173.964 54.08C173.191 56 172.804 58.3067 172.804 61C172.804 63.6667 173.191 65.9733 173.964 67.92C174.764 69.84 175.871 71.32 177.284 72.36C178.724 73.4 180.377 73.92 182.244 73.92ZM198.055 75V74.04L210.055 61.96C211.228 60.8133 212.108 59.8 212.695 58.92C213.282 58.04 213.682 57.2267 213.895 56.48C214.108 55.7067 214.215 54.9467 214.215 54.2C214.215 52.3333 213.575 50.8533 212.295 49.76C211.015 48.64 209.162 48.08 206.735 48.08C204.868 48.08 203.242 48.36 201.855 48.92C200.495 49.4533 199.322 50.2933 198.335 51.44L197.415 50.56C198.455 49.36 199.762 48.44 201.335 47.8C202.908 47.16 204.722 46.84 206.775 46.84C208.562 46.84 210.108 47.1333 211.415 47.72C212.748 48.3067 213.762 49.1467 214.455 50.24C215.175 51.3067 215.535 52.6 215.535 54.12C215.535 55 215.415 55.8667 215.175 56.72C214.935 57.5733 214.482 58.4933 213.815 59.48C213.175 60.44 212.242 61.5333 211.015 62.76L199.535 74.32L198.975 73.76H217.015V75H198.055ZM221.36 75V74.04L233.36 61.96C234.533 60.8133 235.413 59.8 236 58.92C236.586 58.04 236.986 57.2267 237.2 56.48C237.413 55.7067 237.52 54.9467 237.52 54.2C237.52 52.3333 236.88 50.8533 235.6 49.76C234.32 48.64 232.466 48.08 230.04 48.08C228.173 48.08 226.546 48.36 225.16 48.92C223.8 49.4533 222.626 50.2933 221.64 51.44L220.72 50.56C221.76 49.36 223.066 48.44 224.64 47.8C226.213 47.16 228.026 46.84 230.08 46.84C231.866 46.84 233.413 47.1333 234.72 47.72C236.053 48.3067 237.066 49.1467 237.76 50.24C238.48 51.3067 238.84 52.6 238.84 54.12C238.84 55 238.72 55.8667 238.48 56.72C238.24 57.5733 237.786 58.4933 237.12 59.48C236.48 60.44 235.546 61.5333 234.32 62.76L222.84 74.32L222.28 73.76H240.32V75H221.36Z" fill="white"/>
<rect x="-1" y="769" width="390" height="79" fill="#101112"/>
<path d="M63.1109 781.333H60.7781V779H59.2219V781.333H46.7781V779H45.2219V781.333H42.8891C40.7442 781.333 39 783.077 39 785.222V803.889C39 806.034 40.7442 807.778 42.8891 807.778H63.1109C65.2558 807.778 67 806.034 67 803.889V789.111V787.556V785.222C67 783.078 65.2558 781.333 63.1109 781.333ZM65.4453 803.889C65.4453 805.176 64.399 806.222 63.1124 806.222H42.8891C41.6024 806.222 40.5562 805.176 40.5562 803.889V789.111H65.4453V803.889ZM65.4453 787.556H40.5547V785.222C40.5547 783.935 41.601 782.889 42.8876 782.889H45.2204V784.445H46.7781V782.889H59.2234V784.445H60.7796V782.889H63.1124C64.399 782.889 65.4453 783.935 65.4453 785.222V787.556Z" fill="url(#paint13_linear_1_7)"/>
<path d="M51.4437 796.889H54.5546C55.4129 796.889 56.1108 796.191 56.1108 795.333V792.222C56.1108 791.364 55.4129 790.666 54.5546 790.666H51.4437C50.5854 790.666 49.8875 791.364 49.8875 792.222V795.333C49.8889 796.191 50.5869 796.889 51.4437 796.889ZM51.4437 792.222H54.5546L54.5561 795.333H51.4437V792.222Z" fill="url(#paint14_linear_1_7)"/>
<path d="M59.222 796.889H62.3329C63.1912 796.889 63.8891 796.191 63.8891 795.333V792.222C63.8891 791.364 63.1912 790.666 62.3329 790.666H59.222C58.3637 790.666 57.6658 791.364 57.6658 792.222V795.333C57.6672 796.191 58.3652 796.889 59.222 796.889ZM59.222 792.222H62.3329L62.3344 795.333H59.222V792.222Z" fill="url(#paint15_linear_1_7)"/>
<path d="M43.6672 804.667H46.7781C47.6364 804.667 48.3343 803.969 48.3343 803.111V800C48.3343 799.142 47.6364 798.444 46.7781 798.444H43.6672C42.8089 798.444 42.111 799.142 42.111 800V803.111C42.111 803.969 42.8089 804.667 43.6672 804.667ZM43.6672 800H46.7781L46.7796 803.111H43.6672V800Z" fill="url(#paint16_linear_1_7)"/>
<path d="M51.4437 804.667H54.5546C55.4129 804.667 56.1108 803.969 56.1108 803.111V800C56.1108 799.142 55.4129 798.444 54.5546 798.444H51.4437C50.5854 798.444 49.8875 799.142 49.8875 800V803.111C49.8889 803.969 50.5869 804.667 51.4437 804.667ZM51.4437 800H54.5546L54.5561 803.111H51.4437V800Z" fill="url(#paint17_linear_1_7)"/>
<path d="M59.222 804.667H62.3329C63.1912 804.667 63.8891 803.969 63.8891 803.111V800C63.8891 799.142 63.1912 798.444 62.3329 798.444H59.222C58.3637 798.444 57.6658 799.142 57.6658 800V803.111C57.6672 803.969 58.3652 804.667 59.222 804.667ZM59.222 800H62.3329L62.3344 803.111H59.222V800Z" fill="url(#paint18_linear_1_7)"/>
<path d="M33.14 822.889V815.889H33.75L36.95 821.349H36.63L39.8 815.889H40.41V822.889H39.7V816.999H39.87L36.95 821.999H36.6L33.66 816.999H33.85V822.889H33.14ZM44.6808 822.939C44.1741 822.939 43.7174 822.826 43.3108 822.599C42.9108 822.366 42.5941 822.049 42.3608 821.649C42.1274 821.242 42.0108 820.779 42.0108 820.259C42.0108 819.732 42.1274 819.269 42.3608 818.869C42.5941 818.469 42.9108 818.156 43.3108 817.929C43.7108 817.702 44.1674 817.589 44.6808 817.589C45.2008 817.589 45.6608 817.702 46.0608 817.929C46.4674 818.156 46.7841 818.469 47.0108 818.869C47.2441 819.269 47.3608 819.732 47.3608 820.259C47.3608 820.779 47.2441 821.242 47.0108 821.649C46.7841 822.049 46.4674 822.366 46.0608 822.599C45.6541 822.826 45.1941 822.939 44.6808 822.939ZM44.6808 822.309C45.0608 822.309 45.3974 822.226 45.6908 822.059C45.9841 821.886 46.2141 821.646 46.3808 821.339C46.5541 821.026 46.6408 820.666 46.6408 820.259C46.6408 819.846 46.5541 819.486 46.3808 819.179C46.2141 818.872 45.9841 818.636 45.6908 818.469C45.3974 818.296 45.0641 818.209 44.6908 818.209C44.3174 818.209 43.9841 818.296 43.6908 818.469C43.3974 818.636 43.1641 818.872 42.9908 819.179C42.8174 819.486 42.7308 819.846 42.7308 820.259C42.7308 820.666 42.8174 821.026 42.9908 821.339C43.1641 821.646 43.3974 821.886 43.6908 822.059C43.9841 822.226 44.3141 822.309 44.6808 822.309ZM51.4903 817.589C51.917 817.589 52.2903 817.672 52.6103 817.839C52.937 817.999 53.1903 818.246 53.3703 818.579C53.557 818.912 53.6503 819.332 53.6503 819.839V822.889H52.9403V819.909C52.9403 819.356 52.8003 818.939 52.5203 818.659C52.247 818.372 51.8603 818.229 51.3603 818.229C50.987 818.229 50.6603 818.306 50.3803 818.459C50.107 818.606 49.8936 818.822 49.7403 819.109C49.5936 819.389 49.5203 819.729 49.5203 820.129V822.889H48.8103V817.639H49.4903V819.079L49.3803 818.809C49.547 818.429 49.8136 818.132 50.1803 817.919C50.547 817.699 50.9836 817.589 51.4903 817.589ZM57.2281 822.939C56.7348 822.939 56.3548 822.806 56.0881 822.539C55.8215 822.272 55.6881 821.896 55.6881 821.409V816.479H56.3981V821.369C56.3981 821.676 56.4748 821.912 56.6281 822.079C56.7881 822.246 57.0148 822.329 57.3081 822.329C57.6215 822.329 57.8815 822.239 58.0881 822.059L58.3381 822.569C58.1981 822.696 58.0281 822.789 57.8281 822.849C57.6348 822.909 57.4348 822.939 57.2281 822.939ZM54.7481 818.229V817.639H57.9981V818.229H54.7481ZM62.3106 817.589C62.7373 817.589 63.1106 817.672 63.4306 817.839C63.7573 817.999 64.0106 818.246 64.1906 818.579C64.3773 818.912 64.4706 819.332 64.4706 819.839V822.889H63.7606V819.909C63.7606 819.356 63.6206 818.939 63.3406 818.659C63.0673 818.372 62.6806 818.229 62.1806 818.229C61.8073 818.229 61.4806 818.306 61.2006 818.459C60.9273 818.606 60.714 818.822 60.5606 819.109C60.414 819.389 60.3406 819.729 60.3406 820.129V822.889H59.6306V815.469H60.3406V819.079L60.2006 818.809C60.3673 818.429 60.634 818.132 61.0006 817.919C61.3673 817.699 61.804 817.589 62.3106 817.589ZM66.3884 822.889V815.469H67.0984V822.889H66.3884ZM69.114 824.879C68.8673 824.879 68.6307 824.839 68.404 824.759C68.184 824.679 67.994 824.559 67.834 824.399L68.164 823.869C68.2973 823.996 68.4407 824.092 68.594 824.159C68.754 824.232 68.9307 824.269 69.124 824.269C69.3573 824.269 69.5573 824.202 69.724 824.069C69.8973 823.942 70.0607 823.716 70.214 823.389L70.554 822.619L70.634 822.509L72.794 817.639H73.494L70.864 823.519C70.7173 823.859 70.554 824.129 70.374 824.329C70.2007 824.529 70.0107 824.669 69.804 824.749C69.5973 824.836 69.3673 824.879 69.114 824.879ZM70.514 823.039L68.094 817.639H68.834L70.974 822.459L70.514 823.039Z" fill="url(#paint19_linear_1_7)"/>
<path fill-rule="evenodd" clip-rule="evenodd" d="M137.5 802.099C137.5 801.818 137.612 801.547 137.811 801.348C138.01 801.149 138.281 801.037 138.562 801.037H157.688C157.969 801.037 158.24 801.149 158.439 801.348C158.638 801.547 158.75 801.818 158.75 802.099C158.75 802.381 158.638 802.651 158.439 802.851C158.24 803.05 157.969 803.162 157.688 803.162H138.562C138.281 803.162 138.01 803.05 137.811 802.851C137.612 802.651 137.5 802.381 137.5 802.099ZM137.5 793.599C137.5 793.318 137.612 793.047 137.811 792.848C138.01 792.649 138.281 792.537 138.562 792.537H157.688C157.969 792.537 158.24 792.649 158.439 792.848C158.638 793.047 158.75 793.318 158.75 793.599C158.75 793.881 158.638 794.151 158.439 794.351C158.24 794.55 157.969 794.662 157.688 794.662H138.562C138.281 794.662 138.01 794.55 137.811 794.351C137.612 794.151 137.5 793.881 137.5 793.599ZM137.5 785.099C137.5 784.818 137.612 784.547 137.811 784.348C138.01 784.149 138.281 784.037 138.562 784.037H157.688C157.969 784.037 158.24 784.149 158.439 784.348C158.638 784.547 158.75 784.818 158.75 785.099C158.75 785.381 158.638 785.651 158.439 785.851C158.24 786.05 157.969 786.162 157.688 786.162H138.562C138.281 786.162 138.01 786.05 137.811 785.851C137.612 785.651 137.5 785.381 137.5 785.099ZM131.125 787.224C131.689 787.224 132.229 787 132.628 786.602C133.026 786.203 133.25 785.663 133.25 785.099C133.25 784.536 133.026 783.995 132.628 783.597C132.229 783.198 131.689 782.974 131.125 782.974C130.561 782.974 130.021 783.198 129.622 783.597C129.224 783.995 129 784.536 129 785.099C129 785.663 129.224 786.203 129.622 786.602C130.021 787 130.561 787.224 131.125 787.224ZM131.125 795.724C131.689 795.724 132.229 795.5 132.628 795.102C133.026 794.703 133.25 794.163 133.25 793.599C133.25 793.036 133.026 792.495 132.628 792.097C132.229 791.698 131.689 791.474 131.125 791.474C130.561 791.474 130.021 791.698 129.622 792.097C129.224 792.495 129 793.036 129 793.599C129 794.163 129.224 794.703 129.622 795.102C130.021 795.5 130.561 795.724 131.125 795.724ZM131.125 804.224C131.689 804.224 132.229 804 132.628 803.602C133.026 803.203 133.25 802.663 133.25 802.099C133.25 801.536 133.026 800.995 132.628 800.597C132.229 800.198 131.689 799.974 131.125 799.974C130.561 799.974 130.021 800.198 129.622 800.597C129.224 800.995 129 801.536 129 802.099C129 802.663 129.224 803.203 129.622 803.602C130.021 804 130.561 804.224 131.125 804.224Z" fill="#FBFFFE"/>
<path d="M127.73 823L125.37 816H126.13L128.34 822.59H127.96L130.24 816H130.92L133.17 822.59H132.81L135.04 816H135.75L133.39 823H132.61L130.46 816.75H130.66L128.5 823H127.73ZM138.786 823.05C138.24 823.05 137.76 822.937 137.346 822.71C136.933 822.477 136.61 822.16 136.376 821.76C136.143 821.353 136.026 820.89 136.026 820.37C136.026 819.85 136.136 819.39 136.356 818.99C136.583 818.59 136.89 818.277 137.276 818.05C137.67 817.817 138.11 817.7 138.596 817.7C139.09 817.7 139.526 817.813 139.906 818.04C140.293 818.26 140.596 818.573 140.816 818.98C141.036 819.38 141.146 819.843 141.146 820.37C141.146 820.403 141.143 820.44 141.136 820.48C141.136 820.513 141.136 820.55 141.136 820.59H136.566V820.06H140.756L140.476 820.27C140.476 819.89 140.393 819.553 140.226 819.26C140.066 818.96 139.846 818.727 139.566 818.56C139.286 818.393 138.963 818.31 138.596 818.31C138.236 818.31 137.913 818.393 137.626 818.56C137.34 818.727 137.116 818.96 136.956 819.26C136.796 819.56 136.716 819.903 136.716 820.29V820.4C136.716 820.8 136.803 821.153 136.976 821.46C137.156 821.76 137.403 821.997 137.716 822.17C138.036 822.337 138.4 822.42 138.806 822.42C139.126 822.42 139.423 822.363 139.696 822.25C139.976 822.137 140.216 821.963 140.416 821.73L140.816 822.19C140.583 822.47 140.29 822.683 139.936 822.83C139.59 822.977 139.206 823.05 138.786 823.05ZM144.822 823.05C144.275 823.05 143.795 822.937 143.382 822.71C142.968 822.477 142.645 822.16 142.412 821.76C142.178 821.353 142.062 820.89 142.062 820.37C142.062 819.85 142.172 819.39 142.392 818.99C142.618 818.59 142.925 818.277 143.312 818.05C143.705 817.817 144.145 817.7 144.632 817.7C145.125 817.7 145.562 817.813 145.942 818.04C146.328 818.26 146.632 818.573 146.852 818.98C147.072 819.38 147.182 819.843 147.182 820.37C147.182 820.403 147.178 820.44 147.172 820.48C147.172 820.513 147.172 820.55 147.172 820.59H142.602V820.06H146.792L146.512 820.27C146.512 819.89 146.428 819.553 146.262 819.26C146.102 818.96 145.882 818.727 145.602 818.56C145.322 818.393 144.998 818.31 144.632 818.31C144.272 818.31 143.948 818.393 143.662 818.56C143.375 818.727 143.152 818.96 142.992 819.26C142.832 819.56 142.752 819.903 142.752 820.29V820.4C142.752 820.8 142.838 821.153 143.012 821.46C143.192 821.76 143.438 821.997 143.752 822.17C144.072 822.337 144.435 822.42 144.842 822.42C145.162 822.42 145.458 822.363 145.732 822.25C146.012 822.137 146.252 821.963 146.452 821.73L146.852 822.19C146.618 822.47 146.325 822.683 145.972 822.83C145.625 822.977 145.242 823.05 144.822 823.05ZM149.187 821.64L149.207 820.73L152.477 817.75H153.347L151.037 819.96L150.637 820.3L149.187 821.64ZM148.627 823V815.58H149.337V823H148.627ZM152.697 823L150.507 820.27L150.967 819.72L153.567 823H152.697ZM154.633 823V815.58H155.343V823H154.633ZM157.358 824.99C157.111 824.99 156.875 824.95 156.648 824.87C156.428 824.79 156.238 824.67 156.078 824.51L156.408 823.98C156.541 824.107 156.685 824.203 156.838 824.27C156.998 824.343 157.175 824.38 157.368 824.38C157.601 824.38 157.801 824.313 157.968 824.18C158.141 824.053 158.305 823.827 158.458 823.5L158.798 822.73L158.878 822.62L161.038 817.75H161.738L159.108 823.63C158.961 823.97 158.798 824.24 158.618 824.44C158.445 824.64 158.255 824.78 158.048 824.86C157.841 824.947 157.611 824.99 157.358 824.99ZM158.758 823.15L156.338 817.75H157.078L159.218 822.57L158.758 823.15Z" fill="#FBFFFE"/>
<path d="M256.155 799.95C256.143 799.916 256.124 799.884 256.099 799.858C256.075 799.831 256.046 799.81 256.013 799.794C255.98 799.779 255.945 799.77 255.909 799.769C255.873 799.767 255.837 799.773 255.803 799.786L253.711 800.548V782.152C253.711 780.867 252.672 779.828 251.387 779.828H233.613C232.328 779.828 231.289 780.867 231.289 782.152V800.548L229.194 799.786C229.163 799.775 229.132 799.769 229.102 799.769C228.951 799.769 228.828 799.892 228.828 800.042V802.079C228.828 802.192 228.9 802.294 229.009 802.335L242.124 807.107C242.367 807.196 242.63 807.196 242.873 807.107L255.991 802.339C256.1 802.298 256.172 802.195 256.172 802.083V800.045C256.172 800.011 256.165 799.98 256.155 799.95ZM242.5 804.625L233.75 801.443V782.289H251.25V801.443L242.5 804.625ZM247.579 786.664H245.716C245.614 786.664 245.518 786.722 245.474 786.814L242.579 792.584H242.466L239.571 786.814C239.548 786.769 239.513 786.732 239.471 786.705C239.428 786.679 239.379 786.664 239.328 786.664H237.424C237.38 786.664 237.335 786.674 237.294 786.698C237.161 786.77 237.113 786.937 237.185 787.067L240.736 793.616H238.788C238.638 793.616 238.515 793.739 238.515 793.89V794.816C238.515 794.966 238.638 795.089 238.788 795.089H241.386V796.422H238.788C238.638 796.422 238.515 796.545 238.515 796.696V797.622C238.515 797.772 238.638 797.896 238.788 797.896H241.386V800.062C241.386 800.213 241.509 800.336 241.659 800.336H243.365C243.515 800.336 243.638 800.213 243.638 800.062V797.892H246.246C246.396 797.892 246.52 797.769 246.52 797.619V796.692C246.52 796.542 246.396 796.419 246.246 796.419H243.638V795.086H246.246C246.396 795.086 246.52 794.963 246.52 794.813V793.886C246.52 793.736 246.396 793.613 246.246 793.613H244.277L247.822 787.064C247.842 787.023 247.856 786.979 247.856 786.934C247.853 786.787 247.729 786.664 247.579 786.664Z" fill="white"/>
<path d="M230.07 823.06C229.55 823.06 229.05 822.977 228.57 822.81C228.097 822.637 227.73 822.417 227.47 822.15L227.76 821.58C228.007 821.82 228.337 822.023 228.75 822.19C229.17 822.35 229.61 822.43 230.07 822.43C230.51 822.43 230.867 822.377 231.14 822.27C231.42 822.157 231.623 822.007 231.75 821.82C231.883 821.633 231.95 821.427 231.95 821.2C231.95 820.927 231.87 820.707 231.71 820.54C231.557 820.373 231.353 820.243 231.1 820.15C230.847 820.05 230.567 819.963 230.26 819.89C229.953 819.817 229.647 819.74 229.34 819.66C229.033 819.573 228.75 819.46 228.49 819.32C228.237 819.18 228.03 818.997 227.87 818.77C227.717 818.537 227.64 818.233 227.64 817.86C227.64 817.513 227.73 817.197 227.91 816.91C228.097 816.617 228.38 816.383 228.76 816.21C229.14 816.03 229.627 815.94 230.22 815.94C230.613 815.94 231.003 815.997 231.39 816.11C231.777 816.217 232.11 816.367 232.39 816.56L232.14 817.15C231.84 816.95 231.52 816.803 231.18 816.71C230.847 816.617 230.523 816.57 230.21 816.57C229.79 816.57 229.443 816.627 229.17 816.74C228.897 816.853 228.693 817.007 228.56 817.2C228.433 817.387 228.37 817.6 228.37 817.84C228.37 818.113 228.447 818.333 228.6 818.5C228.76 818.667 228.967 818.797 229.22 818.89C229.48 818.983 229.763 819.067 230.07 819.14C230.377 819.213 230.68 819.293 230.98 819.38C231.287 819.467 231.567 819.58 231.82 819.72C232.08 819.853 232.287 820.033 232.44 820.26C232.6 820.487 232.68 820.783 232.68 821.15C232.68 821.49 232.587 821.807 232.4 822.1C232.213 822.387 231.927 822.62 231.54 822.8C231.16 822.973 230.67 823.06 230.07 823.06ZM237.432 823V821.84L237.402 821.65V819.71C237.402 819.263 237.276 818.92 237.022 818.68C236.776 818.44 236.406 818.32 235.912 818.32C235.572 818.32 235.249 818.377 234.942 818.49C234.636 818.603 234.376 818.753 234.162 818.94L233.842 818.41C234.109 818.183 234.429 818.01 234.802 817.89C235.176 817.763 235.569 817.7 235.982 817.7C236.662 817.7 237.186 817.87 237.552 818.21C237.926 818.543 238.112 819.053 238.112 819.74V823H237.432ZM235.622 823.05C235.229 823.05 234.886 822.987 234.592 822.86C234.306 822.727 234.086 822.547 233.932 822.32C233.779 822.087 233.702 821.82 233.702 821.52C233.702 821.247 233.766 821 233.892 820.78C234.026 820.553 234.239 820.373 234.532 820.24C234.832 820.1 235.232 820.03 235.732 820.03H237.542V820.56H235.752C235.246 820.56 234.892 820.65 234.692 820.83C234.499 821.01 234.402 821.233 234.402 821.5C234.402 821.8 234.519 822.04 234.752 822.22C234.986 822.4 235.312 822.49 235.732 822.49C236.132 822.49 236.476 822.4 236.762 822.22C237.056 822.033 237.269 821.767 237.402 821.42L237.562 821.91C237.429 822.257 237.196 822.533 236.862 822.74C236.536 822.947 236.122 823.05 235.622 823.05ZM240.041 823V815.58H240.751V823H240.041ZM246.016 823V821.84L245.986 821.65V819.71C245.986 819.263 245.86 818.92 245.606 818.68C245.36 818.44 244.99 818.32 244.496 818.32C244.156 818.32 243.833 818.377 243.526 818.49C243.22 818.603 242.96 818.753 242.746 818.94L242.426 818.41C242.693 818.183 243.013 818.01 243.386 817.89C243.76 817.763 244.153 817.7 244.566 817.7C245.246 817.7 245.77 817.87 246.136 818.21C246.51 818.543 246.696 819.053 246.696 819.74V823H246.016ZM244.206 823.05C243.813 823.05 243.47 822.987 243.176 822.86C242.89 822.727 242.67 822.547 242.516 822.32C242.363 822.087 242.286 821.82 242.286 821.52C242.286 821.247 242.35 821 242.476 820.78C242.61 820.553 242.823 820.373 243.116 820.24C243.416 820.1 243.816 820.03 244.316 820.03H246.126V820.56H244.336C243.83 820.56 243.476 820.65 243.276 820.83C243.083 821.01 242.986 821.233 242.986 821.5C242.986 821.8 243.103 822.04 243.336 822.22C243.57 822.4 243.896 822.49 244.316 822.49C244.716 822.49 245.06 822.4 245.346 822.22C245.64 822.033 245.853 821.767 245.986 821.42L246.146 821.91C246.013 822.257 245.78 822.533 245.446 822.74C245.12 822.947 244.706 823.05 244.206 823.05ZM248.625 823V817.75H249.305V819.18L249.235 818.93C249.381 818.53 249.628 818.227 249.975 818.02C250.321 817.807 250.751 817.7 251.265 817.7V818.39C251.238 818.39 251.211 818.39 251.185 818.39C251.158 818.383 251.131 818.38 251.105 818.38C250.551 818.38 250.118 818.55 249.805 818.89C249.491 819.223 249.335 819.7 249.335 820.32V823H248.625ZM252.825 824.99C252.578 824.99 252.342 824.95 252.115 824.87C251.895 824.79 251.705 824.67 251.545 824.51L251.875 823.98C252.008 824.107 252.152 824.203 252.305 824.27C252.465 824.343 252.642 824.38 252.835 824.38C253.068 824.38 253.268 824.313 253.435 824.18C253.608 824.053 253.772 823.827 253.925 823.5L254.265 822.73L254.345 822.62L256.505 817.75H257.205L254.575 823.63C254.428 823.97 254.265 824.24 254.085 824.44C253.912 824.64 253.722 824.78 253.515 824.86C253.308 824.947 253.078 824.99 252.825 824.99ZM254.225 823.15L251.805 817.75H252.545L254.685 822.57L254.225 823.15Z" fill="#FBFFFE"/>
<path d="M340.012 806.188C340.204 806.187 340.391 806.127 340.546 806.014C340.701 805.901 340.816 805.741 340.875 805.559L341.872 802.461C342.29 802.256 342.691 802.026 343.073 801.767L346.256 802.452C346.444 802.492 346.639 802.471 346.815 802.393C346.99 802.315 347.136 802.183 347.231 802.017L349.743 797.669C349.839 797.502 349.88 797.31 349.859 797.119C349.839 796.928 349.758 796.749 349.629 796.607L347.445 794.196C347.477 793.734 347.477 793.27 347.445 792.808L349.629 790.393C349.758 790.251 349.839 790.072 349.859 789.881C349.88 789.69 349.839 789.498 349.743 789.331L347.231 784.981C347.135 784.815 346.989 784.684 346.814 784.606C346.639 784.528 346.444 784.508 346.256 784.548L343.073 785.233C342.693 784.976 342.29 784.744 341.874 784.539L340.875 781.441C340.816 781.259 340.701 781.099 340.546 780.986C340.391 780.873 340.204 780.813 340.012 780.812H334.988C334.796 780.813 334.609 780.873 334.454 780.986C334.299 781.099 334.184 781.259 334.125 781.441L333.13 784.537C332.712 784.741 332.31 784.975 331.925 785.235L328.744 784.548C328.556 784.508 328.361 784.529 328.185 784.607C328.01 784.685 327.864 784.817 327.769 784.983L325.257 789.331C325.161 789.498 325.12 789.69 325.141 789.881C325.161 790.072 325.242 790.251 325.371 790.393L327.555 792.808C327.523 793.269 327.523 793.731 327.555 794.192L325.371 796.607C325.242 796.749 325.161 796.928 325.141 797.119C325.12 797.31 325.161 797.502 325.257 797.669L327.769 802.019C327.865 802.185 328.011 802.316 328.186 802.394C328.361 802.472 328.556 802.492 328.744 802.452L331.925 801.765C332.309 802.024 332.711 802.258 333.13 802.463L334.127 805.559C334.185 805.741 334.3 805.9 334.454 806.013C334.609 806.125 334.795 806.187 334.986 806.188H340.01H340.012ZM339.349 804.375H335.651L334.622 801.172L333.928 800.833C333.586 800.666 333.257 800.476 332.942 800.264L332.3 799.829L329.008 800.54L327.16 797.335L329.416 794.838L329.362 794.069C329.336 793.69 329.336 793.31 329.362 792.931L329.416 792.162L327.156 789.665L329.007 786.46L332.298 787.169L332.94 786.736C333.255 786.524 333.584 786.334 333.926 786.167L334.62 785.828L335.651 782.625H339.352L340.385 785.83L341.078 786.167C341.419 786.333 341.748 786.523 342.062 786.736L342.702 787.169L345.995 786.46L347.844 789.665L345.586 792.162L345.64 792.931C345.666 793.31 345.666 793.691 345.64 794.071L345.586 794.839L347.846 797.335L345.995 800.54L342.702 799.833L342.062 800.264C341.748 800.477 341.419 800.667 341.078 800.833L340.385 801.171L339.351 804.375H339.349ZM337.5 798.938C338.942 798.938 340.325 798.365 341.345 797.345C342.365 796.325 342.937 794.942 342.937 793.5C342.937 792.058 342.365 790.675 341.345 789.655C340.325 788.635 338.942 788.062 337.5 788.062C336.058 788.062 334.675 788.635 333.655 789.655C332.635 790.675 332.062 792.058 332.062 793.5C332.062 794.942 332.635 796.325 333.655 797.345C334.675 798.365 336.058 798.938 337.5 798.938ZM337.5 797.125C336.539 797.125 335.617 796.743 334.937 796.063C334.257 795.383 333.875 794.461 333.875 793.5C333.875 792.539 334.257 791.617 334.937 790.937C335.617 790.257 336.539 789.875 337.5 789.875C338.461 789.875 339.383 790.257 340.063 790.937C340.743 791.617 341.125 792.539 341.125 793.5C341.125 794.461 340.743 795.383 340.063 796.063C339.383 796.743 338.461 797.125 337.5 797.125Z" fill="white"/>
<path d="M322.07 823.06C321.55 823.06 321.05 822.977 320.57 822.81C320.097 822.637 319.73 822.417 319.47 822.15L319.76 821.58C320.007 821.82 320.337 822.023 320.75 822.19C321.17 822.35 321.61 822.43 322.07 822.43C322.51 822.43 322.867 822.377 323.14 822.27C323.42 822.157 323.623 822.007 323.75 821.82C323.883 821.633 323.95 821.427 323.95 821.2C323.95 820.927 323.87 820.707 323.71 820.54C323.557 820.373 323.353 820.243 323.1 820.15C322.847 820.05 322.567 819.963 322.26 819.89C321.953 819.817 321.647 819.74 321.34 819.66C321.033 819.573 320.75 819.46 320.49 819.32C320.237 819.18 320.03 818.997 319.87 818.77C319.717 818.537 319.64 818.233 319.64 817.86C319.64 817.513 319.73 817.197 319.91 816.91C320.097 816.617 320.38 816.383 320.76 816.21C321.14 816.03 321.627 815.94 322.22 815.94C322.613 815.94 323.003 815.997 323.39 816.11C323.777 816.217 324.11 816.367 324.39 816.56L324.14 817.15C323.84 816.95 323.52 816.803 323.18 816.71C322.847 816.617 322.523 816.57 322.21 816.57C321.79 816.57 321.443 816.627 321.17 816.74C320.897 816.853 320.693 817.007 320.56 817.2C320.433 817.387 320.37 817.6 320.37 817.84C320.37 818.113 320.447 818.333 320.6 818.5C320.76 818.667 320.967 818.797 321.22 818.89C321.48 818.983 321.763 819.067 322.07 819.14C322.377 819.213 322.68 819.293 322.98 819.38C323.287 819.467 323.567 819.58 323.82 819.72C324.08 819.853 324.287 820.033 324.44 820.26C324.6 820.487 324.68 820.783 324.68 821.15C324.68 821.49 324.587 821.807 324.4 822.1C324.213 822.387 323.927 822.62 323.54 822.8C323.16 822.973 322.67 823.06 322.07 823.06ZM328.372 823.05C327.826 823.05 327.346 822.937 326.932 822.71C326.519 822.477 326.196 822.16 325.962 821.76C325.729 821.353 325.612 820.89 325.612 820.37C325.612 819.85 325.722 819.39 325.942 818.99C326.169 818.59 326.476 818.277 326.862 818.05C327.256 817.817 327.696 817.7 328.182 817.7C328.676 817.7 329.112 817.813 329.492 818.04C329.879 818.26 330.182 818.573 330.402 818.98C330.622 819.38 330.732 819.843 330.732 820.37C330.732 820.403 330.729 820.44 330.722 820.48C330.722 820.513 330.722 820.55 330.722 820.59H326.152V820.06H330.342L330.062 820.27C330.062 819.89 329.979 819.553 329.812 819.26C329.652 818.96 329.432 818.727 329.152 818.56C328.872 818.393 328.549 818.31 328.182 818.31C327.822 818.31 327.499 818.393 327.212 818.56C326.926 818.727 326.702 818.96 326.542 819.26C326.382 819.56 326.302 819.903 326.302 820.29V820.4C326.302 820.8 326.389 821.153 326.562 821.46C326.742 821.76 326.989 821.997 327.302 822.17C327.622 822.337 327.986 822.42 328.392 822.42C328.712 822.42 329.009 822.363 329.282 822.25C329.562 822.137 329.802 821.963 330.002 821.73L330.402 822.19C330.169 822.47 329.876 822.683 329.522 822.83C329.176 822.977 328.792 823.05 328.372 823.05ZM333.838 823.05C333.344 823.05 332.964 822.917 332.698 822.65C332.431 822.383 332.298 822.007 332.298 821.52V816.59H333.008V821.48C333.008 821.787 333.084 822.023 333.238 822.19C333.398 822.357 333.624 822.44 333.918 822.44C334.231 822.44 334.491 822.35 334.698 822.17L334.948 822.68C334.808 822.807 334.638 822.9 334.438 822.96C334.244 823.02 334.044 823.05 333.838 823.05ZM331.358 818.34V817.75H334.608V818.34H331.358ZM337.763 823.05C337.27 823.05 336.89 822.917 336.623 822.65C336.357 822.383 336.223 822.007 336.223 821.52V816.59H336.933V821.48C336.933 821.787 337.01 822.023 337.163 822.19C337.323 822.357 337.55 822.44 337.843 822.44C338.157 822.44 338.417 822.35 338.623 822.17L338.873 822.68C338.733 822.807 338.563 822.9 338.363 822.96C338.17 823.02 337.97 823.05 337.763 823.05ZM335.283 818.34V817.75H338.533V818.34H335.283ZM340.166 823V817.75H340.876V823H340.166ZM340.526 816.59C340.379 816.59 340.256 816.54 340.156 816.44C340.056 816.34 340.006 816.22 340.006 816.08C340.006 815.94 340.056 815.823 340.156 815.73C340.256 815.63 340.379 815.58 340.526 815.58C340.672 815.58 340.796 815.627 340.896 815.72C340.996 815.813 341.046 815.93 341.046 816.07C341.046 816.217 340.996 816.34 340.896 816.44C340.802 816.54 340.679 816.59 340.526 816.59ZM345.531 817.7C345.958 817.7 346.331 817.783 346.651 817.95C346.978 818.11 347.231 818.357 347.411 818.69C347.598 819.023 347.691 819.443 347.691 819.95V823H346.981V820.02C346.981 819.467 346.841 819.05 346.561 818.77C346.288 818.483 345.901 818.34 345.401 818.34C345.028 818.34 344.701 818.417 344.421 818.57C344.148 818.717 343.935 818.933 343.781 819.22C343.635 819.5 343.561 819.84 343.561 820.24V823H342.851V817.75H343.531V819.19L343.421 818.92C343.588 818.54 343.855 818.243 344.221 818.03C344.588 817.81 345.025 817.7 345.531 817.7ZM351.849 824.99C351.369 824.99 350.909 824.92 350.469 824.78C350.029 824.64 349.672 824.44 349.399 824.18L349.759 823.64C350.006 823.86 350.309 824.033 350.669 824.16C351.036 824.293 351.422 824.36 351.829 824.36C352.496 824.36 352.986 824.203 353.299 823.89C353.612 823.583 353.769 823.103 353.769 822.45V821.14L353.869 820.24L353.799 819.34V817.75H354.479V822.36C354.479 823.267 354.256 823.93 353.809 824.35C353.369 824.777 352.716 824.99 351.849 824.99ZM351.719 822.8C351.219 822.8 350.769 822.693 350.369 822.48C349.969 822.26 349.652 821.957 349.419 821.57C349.192 821.183 349.079 820.74 349.079 820.24C349.079 819.74 349.192 819.3 349.419 818.92C349.652 818.533 349.969 818.233 350.369 818.02C350.769 817.807 351.219 817.7 351.719 817.7C352.186 817.7 352.606 817.797 352.979 817.99C353.352 818.183 353.649 818.47 353.869 818.85C354.089 819.23 354.199 819.693 354.199 820.24C354.199 820.787 354.089 821.25 353.869 821.63C353.649 822.01 353.352 822.3 352.979 822.5C352.606 822.7 352.186 822.8 351.719 822.8ZM351.789 822.17C352.176 822.17 352.519 822.09 352.819 821.93C353.119 821.763 353.356 821.537 353.529 821.25C353.702 820.957 353.789 820.62 353.789 820.24C353.789 819.86 353.702 819.527 353.529 819.24C353.356 818.953 353.119 818.73 352.819 818.57C352.519 818.403 352.176 818.32 351.789 818.32C351.409 818.32 351.066 818.403 350.759 818.57C350.459 818.73 350.222 818.953 350.049 819.24C349.882 819.527 349.799 819.86 349.799 820.24C349.799 820.62 349.882 820.957 350.049 821.25C350.222 821.537 350.459 821.763 350.759 821.93C351.066 822.09 351.409 822.17 351.789 822.17Z" fill="#FBFFFE"/>
<path opacity="0.35" d="M337.09 23.8326C337.09 22.6359 338.06 21.6659 339.257 21.6659H357.692C358.889 21.6659 359.859 22.6359 359.859 23.8326V29.8326C359.859 31.0292 358.889 31.9992 357.692 31.9992H339.257C338.06 31.9992 337.09 31.0292 337.09 29.8326V23.8326Z" fill="white" stroke="white"/>
<path opacity="0.4" d="M361.439 24.8326V28.8326C362.309 28.4938 362.874 27.7057 362.874 26.8326C362.874 25.9594 362.309 25.1713 361.439 24.8326Z" fill="white"/>
<path d="M338.751 24.4992C338.751 23.7628 339.348 23.1659 340.084 23.1659H356.865C357.601 23.1659 358.198 23.7628 358.198 24.4992V29.1659C358.198 29.9023 357.601 30.4992 356.865 30.4992H340.084C339.348 30.4992 338.751 29.9023 338.751 29.1659V24.4992Z" fill="white"/>
<path fill-rule="evenodd" clip-rule="evenodd" d="M322.901 23.4405C325.295 23.4406 327.598 24.2921 329.333 25.8189C329.464 25.9367 329.673 25.9353 329.801 25.8155L331.05 24.6489C331.115 24.5881 331.152 24.5059 331.151 24.4203C331.151 24.3347 331.113 24.2529 331.047 24.1929C326.493 20.1533 319.309 20.1533 314.755 24.1929C314.689 24.2528 314.651 24.3347 314.651 24.4202C314.65 24.5058 314.686 24.5881 314.751 24.6489L316.001 25.8155C316.129 25.9354 316.338 25.9369 316.469 25.8189C318.204 24.292 320.507 23.4405 322.901 23.4405ZM322.901 27.2362C324.217 27.2361 325.485 27.6887 326.46 28.5059C326.592 28.6218 326.8 28.6193 326.928 28.5002L328.176 27.3335C328.242 27.2723 328.278 27.1893 328.277 27.1031C328.276 27.0168 328.238 26.9345 328.171 26.8745C325.202 24.3181 320.603 24.3181 317.634 26.8745C317.567 26.9345 317.529 27.0168 317.528 27.1031C317.527 27.1894 317.564 27.2724 317.63 27.3335L318.877 28.5002C319.005 28.6193 319.213 28.6218 319.345 28.5059C320.319 27.6892 321.587 27.2367 322.901 27.2362ZM325.4 29.79C325.402 29.8765 325.365 29.9599 325.299 30.0205L323.141 32.0362C323.078 32.0954 322.991 32.1288 322.901 32.1288C322.811 32.1288 322.725 32.0954 322.662 32.0362L320.503 30.0205C320.437 29.9599 320.4 29.8764 320.402 29.7899C320.404 29.7034 320.445 29.6215 320.514 29.5635C321.892 28.4846 323.911 28.4846 325.289 29.5635C325.358 29.6216 325.398 29.7035 325.4 29.79Z" fill="white"/>
<path fill-rule="evenodd" clip-rule="evenodd" d="M308.139 21.4991H307.058C306.462 21.4991 305.978 21.9469 305.978 22.4991V31.1658C305.978 31.7181 306.462 32.1658 307.058 32.1658H308.139C308.735 32.1658 309.219 31.7181 309.219 31.1658V22.4991C309.219 21.9469 308.735 21.4991 308.139 21.4991ZM302.016 23.8325H303.097C303.694 23.8325 304.177 24.2802 304.177 24.8325V31.1658C304.177 31.7181 303.694 32.1658 303.097 32.1658H302.016C301.42 32.1658 300.936 31.7181 300.936 31.1658V24.8325C300.936 24.2802 301.42 23.8325 302.016 23.8325ZM298.055 26.1658H296.974C296.378 26.1658 295.894 26.6135 295.894 27.1658V31.1658C295.894 31.7181 296.378 32.1658 296.974 32.1658H298.055C298.652 32.1658 299.135 31.7181 299.135 31.1658V27.1658C299.135 26.6135 298.652 26.1658 298.055 26.1658ZM293.013 28.1658H291.932C291.336 28.1658 290.852 28.6135 290.852 29.1658V31.1658C290.852 31.7181 291.336 32.1658 291.932 32.1658H293.013C293.61 32.1658 294.093 31.7181 294.093 31.1658V29.1658C294.093 28.6135 293.61 28.1658 293.013 28.1658Z" fill="white"/>
<path d="M31.1782 31.0889C34.0823 31.0889 35.8074 28.9868 35.8074 25.4272C35.8074 24.0869 35.5305 22.959 35.0003 22.0874C34.2327 20.7324 32.9112 20 31.2415 20C28.7567 20 27 21.5454 27 23.7134C27 25.7495 28.5826 27.229 30.7588 27.229C32.0961 27.229 33.1802 26.6504 33.7183 25.647H33.7421C33.7421 25.647 33.7737 25.647 33.7816 25.647C33.7975 25.647 33.8528 25.647 33.8528 25.647C33.8528 28.064 32.8637 29.5068 31.194 29.5068C30.2128 29.5068 29.4531 29.0088 29.192 28.2104H27.1583C27.4985 29.9463 29.0891 31.0889 31.1782 31.0889ZM31.2494 25.7275C29.9358 25.7275 29.002 24.8633 29.002 23.6548C29.002 22.4756 29.9833 21.5747 31.2573 21.5747C32.5313 21.5747 33.5126 22.4902 33.5126 23.6841C33.5126 24.8633 32.5551 25.7275 31.2494 25.7275Z" fill="white"/>
<path d="M39.1471 30.9863C39.8989 30.9863 40.4132 30.4883 40.4132 29.8291C40.4132 29.1626 39.8989 28.6719 39.1471 28.6719C38.4033 28.6719 37.881 29.1626 37.881 29.8291C37.881 30.4883 38.4033 30.9863 39.1471 30.9863ZM39.1471 25.4932C39.8989 25.4932 40.4132 25.0024 40.4132 24.3433C40.4132 23.6768 39.8989 23.186 39.1471 23.186C38.4033 23.186 37.881 23.6768 37.881 24.3433C37.881 25.0024 38.4033 25.4932 39.1471 25.4932Z" fill="white"/>
<path d="M47.8203 30.8325H49.7749V28.8623H51.318V27.2656H49.7749V20.2637H46.8945C44.8766 23.0762 43.2702 25.4272 42.2415 27.1777V28.8623H47.8203V30.8325ZM44.1328 27.1997C45.4622 25.0317 46.6492 23.2959 47.7412 21.8018H47.852V27.3096H44.1328V27.1997Z" fill="white"/>
<path d="M55.6705 30.8325H57.7122V20.2637H55.6785L52.6952 22.1973V24.0137L55.536 22.168H55.6705V30.8325Z" fill="white"/>
<path d="M339.469 66.9062H356.531M339.469 60.4062H356.531M339.469 53.9062H356.531" stroke="white" stroke-width="1.5" stroke-linecap="round" stroke-linejoin="round"/>
<line y1="277.5" x2="390" y2="277.5" stroke="#DFE5F1" stroke-opacity="0.3"/>
<line y1="448.5" x2="390" y2="448.5" stroke="#DFE5F1" stroke-opacity="0.3"/>
<line y1="391.5" x2="390" y2="391.5" stroke="#DFE5F1" stroke-opacity="0.3"/>
<line y1="334.5" x2="390" y2="334.5" stroke="#DFE5F1" stroke-opacity="0.3"/>
<line y1="220.5" x2="390" y2="220.5" stroke="#DFE5F1" stroke-opacity="0.3"/>
</g>
<defs>
<linearGradient id="paint0_linear_1_7" x1="185.578" y1="67.8318" x2="173.396" y2="120.499" gradientUnits="userSpaceOnUse">
<stop offset="0.286458" stop-color="white"/>
<stop offset="1" stop-color="white"/>
</linearGradient>
<linearGradient id="paint1_linear_1_7" x1="36.6375" y1="67.8318" x2="11.151" y2="84.616" gradientUnits="userSpaceOnUse">
<stop offset="0.286458" stop-color="white"/>
<stop offset="1" stop-color="white"/>
</linearGradient>
<linearGradient id="paint2_linear_1_7" x1="349.644" y1="67.8318" x2="324.158" y2="84.616" gradientUnits="userSpaceOnUse">
<stop offset="0.286458" stop-color="white"/>
<stop offset="1" stop-color="white"/>
</linearGradient>
<linearGradient id="paint3_linear_1_7" x1="300.395" y1="303.545" x2="288.152" y2="318.165" gradientUnits="userSpaceOnUse">
<stop offset="0.286458" stop-color="#FF7B00"/>
<stop offset="1" stop-color="#FF7B00"/>
</linearGradient>
<linearGradient id="paint4_linear_1_7" x1="251" y1="369.242" x2="245.659" y2="375.669" gradientUnits="userSpaceOnUse">
<stop offset="0.286458" stop-color="#2BAA93"/>
<stop offset="1" stop-color="#1780E1"/>
</linearGradient>
<linearGradient id="paint5_linear_1_7" x1="36.8756" y1="139.287" x2="24.13" y2="163.068" gradientUnits="userSpaceOnUse">
<stop offset="0.286458" stop-color="#2BAA93"/>
<stop offset="1" stop-color="#23F778"/>
</linearGradient>
<linearGradient id="paint6_linear_1_7" x1="86.7057" y1="139.287" x2="74.5161" y2="163.85" gradientUnits="userSpaceOnUse">
<stop offset="0.286458" stop-color="#2BAA93"/>
<stop offset="1" stop-color="#23F778"/>
</linearGradient>
<linearGradient id="paint7_linear_1_7" x1="141.026" y1="139.287" x2="130.805" y2="165.986" gradientUnits="userSpaceOnUse">
<stop offset="0.286458" stop-color="#2BAA93"/>
<stop offset="1" stop-color="#23F778"/>
</linearGradient>
<linearGradient id="paint8_linear_1_7" x1="197.536" y1="139.287" x2="185.88" y2="164.514" gradientUnits="userSpaceOnUse">
<stop offset="0.286458" stop-color="#2BAA93"/>
<stop offset="1" stop-color="#23F778"/>
</linearGradient>
<linearGradient id="paint9_linear_1_7" x1="247.631" y1="139.287" x2="234.031" y2="161.616" gradientUnits="userSpaceOnUse">
<stop offset="0.286458" stop-color="#2BAA93"/>
<stop offset="1" stop-color="#23F778"/>
</linearGradient>
<linearGradient id="paint10_linear_1_7" x1="295.291" y1="139.287" x2="282.825" y2="163.475" gradientUnits="userSpaceOnUse">
<stop offset="0.286458" stop-color="#2BAA93"/>
<stop offset="1" stop-color="#23F778"/>
</linearGradient>
<linearGradient id="paint11_linear_1_7" x1="346.536" y1="139.287" x2="334.88" y2="164.514" gradientUnits="userSpaceOnUse">
<stop offset="0.286458" stop-color="#2BAA93"/>
<stop offset="1" stop-color="#23F778"/>
</linearGradient>
<linearGradient id="paint12_linear_1_7" x1="161.859" y1="115.58" x2="161.855" y2="117.494" gradientUnits="userSpaceOnUse">
<stop offset="0.286458" stop-color="white"/>
<stop offset="1" stop-color="white"/>
</linearGradient>
<linearGradient id="paint13_linear_1_7" x1="50.6207" y1="766.925" x2="23.3974" y2="798.554" gradientUnits="userSpaceOnUse">
<stop offset="0.286458" stop-color="#2BAA93"/>
<stop offset="1" stop-color="#23F778"/>
</linearGradient>
<linearGradient id="paint14_linear_1_7" x1="52.4703" y1="788.055" x2="46.6093" y2="795.053" gradientUnits="userSpaceOnUse">
<stop offset="0.286458" stop-color="#2BAA93"/>
<stop offset="1" stop-color="#23F778"/>
</linearGradient>
<linearGradient id="paint15_linear_1_7" x1="60.2486" y1="788.055" x2="54.3876" y2="795.053" gradientUnits="userSpaceOnUse">
<stop offset="0.286458" stop-color="#2BAA93"/>
<stop offset="1" stop-color="#23F778"/>
</linearGradient>
<linearGradient id="paint16_linear_1_7" x1="44.6938" y1="795.833" x2="38.8328" y2="802.831" gradientUnits="userSpaceOnUse">
<stop offset="0.286458" stop-color="#2BAA93"/>
<stop offset="1" stop-color="#23F778"/>
</linearGradient>
<linearGradient id="paint17_linear_1_7" x1="52.4703" y1="795.833" x2="46.6093" y2="802.831" gradientUnits="userSpaceOnUse">
<stop offset="0.286458" stop-color="#2BAA93"/>
<stop offset="1" stop-color="#23F778"/>
</linearGradient>
<linearGradient id="paint18_linear_1_7" x1="60.2486" y1="795.833" x2="54.3876" y2="802.831" gradientUnits="userSpaceOnUse">
<stop offset="0.286458" stop-color="#2BAA93"/>
<stop offset="1" stop-color="#23F778"/>
</linearGradient>
<linearGradient id="paint19_linear_1_7" x1="49.431" y1="807.854" x2="44.2352" y2="829.57" gradientUnits="userSpaceOnUse">
<stop offset="0.286458" stop-color="#2BAA93"/>
<stop offset="1" stop-color="#23F778"/>
</linearGradient>
<clipPath id="clip0_1_7">
<rect width="390" height="848" fill="white"/>
</clipPath>
<clipPath id="clip1_1_7">
<rect width="13" height="13" fill="white" transform="translate(144 367)"/>
</clipPath>
</defs>
</svg>
